<svg width="60" height="60" viewBox="0 0 60 60" fill="none" xmlns="http://www.w3.org/2000/svg">
<path fill-rule="evenodd" clip-rule="evenodd" d="M30 18.75C30.6904 18.75 31.25 19.3096 31.25 20V36.9822L37.071 31.1611C37.5592 30.673 38.3507 30.673 38.8388 31.1611C39.327 31.6493 39.327 32.4407 38.8388 32.9289L30.8839 40.8838C30.3957 41.372 29.6043 41.372 29.1161 40.8838L21.1612 32.9289C20.673 32.4407 20.673 31.6493 21.1612 31.1611C21.6493 30.673 22.4408 30.673 22.929 31.1611L28.75 36.9822V20C28.75 19.3096 29.3096 18.75 30 18.75ZM30 57.5C45.1878 57.5 57.5 45.1878 57.5 30C57.5 14.8122 45.1878 2.49999 30 2.49999C14.8122 2.49999 2.49999 14.8122 2.49999 30C2.49999 45.1878 14.8122 57.5 30 57.5ZM30 60C46.5685 60 60 46.5685 60 30C60 13.4315 46.5685 0 30 0C13.4315 0 0 13.4315 0 30C0 46.5685 13.4315 60 30 60Z" fill="#0081FE"/>
</svg>
