<svg width="123" height="43" viewBox="0 0 123 43" fill="none" xmlns="http://www.w3.org/2000/svg">
<path d="M100.864 0.333496C112.646 0.333631 122.197 9.88466 122.197 21.6665C122.197 33.4485 112.646 43.0004 100.864 43.0005H21.333C9.55108 43.0003 0 33.4485 0 21.6665C0.000177559 9.88469 9.55119 0.333673 21.333 0.333496H100.864ZM21.333 6.02197C12.6931 6.02215 5.68865 13.0266 5.68848 21.6665C5.68848 30.3066 12.693 37.3109 21.333 37.311H100.864C109.504 37.3109 116.509 30.3066 116.509 21.6665C116.509 13.0265 109.504 6.02211 100.864 6.02197H21.333ZM73.9551 10.3452C75.5859 10.3452 77.0849 10.6008 78.4502 11.1128C79.8153 11.6248 81 12.3552 82.0049 13.3032C83.0099 14.2324 83.788 15.3325 84.3379 16.603C84.9066 17.8544 85.1914 19.2386 85.1914 20.7554C85.1914 22.2534 84.9068 23.6382 84.3379 24.9087C83.788 26.1792 83.0099 27.2887 82.0049 28.2368C81.0001 29.1657 79.8151 29.886 78.4502 30.3979C77.085 30.9099 75.5961 31.1665 73.9844 31.1665C72.3536 31.1665 70.8452 30.9099 69.4609 30.3979C68.0958 29.886 66.9102 29.1659 65.9053 28.2368C64.9003 27.2887 64.1138 26.1791 63.5449 24.9087C62.995 23.6382 62.7197 22.2534 62.7197 20.7554C62.7197 19.2385 62.9951 17.8545 63.5449 16.603C64.1138 15.3326 64.9004 14.2324 65.9053 13.3032C66.9102 12.3551 68.0957 11.6248 69.4609 11.1128C70.8451 10.6008 72.3434 10.3453 73.9551 10.3452ZM31.0049 16.0054H25.1729V30.7114H18.46V16.0054H12.6289V10.8003H31.0049V16.0054ZM47.082 21.397L53.3906 10.8003H58.9082L58.9648 30.7114H52.8496L52.8008 21.6284L48.4697 28.9194H45.5107L41.1875 21.9429V30.7114H35.0723V10.8003H40.5898L47.082 21.397ZM98.7021 10.8003C100.921 10.8003 102.874 11.2076 104.562 12.0229C106.249 12.8194 107.567 13.957 108.516 15.436C109.464 16.9151 109.937 18.6791 109.938 20.7271C109.938 22.794 109.464 24.5766 108.516 26.0747C107.567 27.5538 106.249 28.7007 104.562 29.5161C102.874 30.3125 100.921 30.7114 98.7021 30.7114H88.8887V10.8003H98.7021ZM73.9551 15.7778C73.3297 15.7779 72.742 15.8913 72.1924 16.1187C71.6614 16.3462 71.1867 16.6786 70.7695 17.1147C70.3714 17.5319 70.0586 18.0535 69.8311 18.6792C69.6035 19.2859 69.4893 19.978 69.4893 20.7554C69.4893 21.5329 69.6035 22.2351 69.8311 22.8608C70.0586 23.4675 70.3714 23.9892 70.7695 24.4253C71.1867 24.8424 71.6615 25.1646 72.1924 25.3921C72.7421 25.6195 73.3296 25.7329 73.9551 25.7329C74.5808 25.7329 75.1595 25.6196 75.6904 25.3921C76.2404 25.1645 76.7151 24.8425 77.1133 24.4253C77.5304 23.9892 77.8525 23.4675 78.0801 22.8608C78.3076 22.2351 78.4209 21.5329 78.4209 20.7554C78.4209 19.978 78.3076 19.2859 78.0801 18.6792C77.8526 18.0536 77.5303 17.5319 77.1133 17.1147C76.7151 16.6786 76.2404 16.3462 75.6904 16.1187C75.1596 15.8912 74.5807 15.7778 73.9551 15.7778ZM95.6016 25.4771H98.418C99.366 25.477 100.191 25.2973 100.893 24.937C101.613 24.5768 102.172 24.0457 102.57 23.3442C102.969 22.6236 103.168 21.7511 103.168 20.7271C103.168 19.7221 102.968 18.8691 102.57 18.1675C102.172 17.466 101.613 16.935 100.893 16.5747C100.191 16.2144 99.366 16.0337 98.418 16.0337H95.6016V25.4771Z" fill="white"/>
</svg>
