<svg width="210" height="73" viewBox="0 0 210 73" fill="none" xmlns="http://www.w3.org/2000/svg">
<path fill-rule="evenodd" clip-rule="evenodd" d="M36.9058 9.75046H172.903C187.678 9.75046 199.655 21.7277 199.655 36.5025C199.655 51.2772 187.678 63.2545 172.903 63.2545H36.9058C22.1311 63.2545 10.1538 51.2772 10.1538 36.5025C10.1538 21.7277 22.1311 9.75046 36.9058 9.75046ZM0.425781 36.5025C0.425781 16.3551 16.7584 0.0224609 36.9058 0.0224609H172.903C193.051 0.0224609 209.383 16.3551 209.383 36.5025C209.383 56.6498 193.051 72.9825 172.903 72.9825H36.9058C16.7584 72.9825 0.425781 56.6498 0.425781 36.5025ZM119.204 52.9434C121.571 53.8189 124.149 54.2566 126.938 54.2566C129.694 54.2566 132.239 53.8189 134.574 52.9434C136.909 52.0678 138.936 50.8356 140.654 49.2467C142.373 47.6254 143.702 45.7284 144.643 43.5558C145.615 41.3833 146.102 39.0161 146.102 36.4544C146.102 33.8603 145.615 31.4931 144.643 29.353C143.702 27.1804 142.373 25.2996 140.654 23.7107C138.936 22.0894 136.909 20.841 134.574 19.9654C132.239 19.0899 129.678 18.6522 126.889 18.6522C124.133 18.6522 121.571 19.0899 119.204 19.9654C116.869 20.841 114.843 22.0894 113.124 23.7107C111.405 25.2996 110.06 27.1804 109.087 29.353C108.146 31.4931 107.676 33.8603 107.676 36.4544C107.676 39.0161 108.146 41.3833 109.087 43.5558C110.06 45.7284 111.405 47.6254 113.124 49.2467C114.843 50.8356 116.869 52.0678 119.204 52.9434ZM129.856 44.3827C128.948 44.7718 127.959 44.9664 126.889 44.9664C125.819 44.9664 124.814 44.7718 123.873 44.3827C122.965 43.9936 122.155 43.4423 121.441 42.729C120.76 41.9831 120.225 41.0914 119.836 40.0538C119.447 38.9837 119.253 37.7839 119.253 36.4544C119.253 35.1249 119.447 33.9413 119.836 32.9037C120.225 31.8336 120.76 30.9419 121.441 30.2285C122.155 29.4827 122.965 28.9152 123.873 28.5261C124.814 28.137 125.819 27.9424 126.889 27.9424C127.959 27.9424 128.948 28.137 129.856 28.5261C130.796 28.9152 131.607 29.4827 132.288 30.2285C133.001 30.9419 133.553 31.8336 133.942 32.9037C134.331 33.9413 134.526 35.1249 134.526 36.4544C134.526 37.7839 134.331 38.9837 133.942 40.0538C133.553 41.0914 133.001 41.9831 132.288 42.729C131.607 43.4423 130.796 43.9936 129.856 44.3827ZM31.9924 53.4784V28.3315H22.0212V19.4304H53.4426V28.3315H43.4714V53.4784H31.9924ZM60.3982 53.4784V19.4304H69.8343L80.9369 37.5514L91.7223 19.4304H101.158L101.256 53.4784H90.7981L90.7155 37.948L83.3076 50.4141H78.249L70.8558 38.4857V53.4784H60.3982ZM152.425 19.4304H169.206C173 19.4304 176.34 20.1276 179.226 21.5219C182.112 22.8838 184.365 24.8294 185.987 27.3587C187.608 29.888 188.419 32.9037 188.419 36.4058C188.419 39.9403 187.608 42.9884 185.987 45.5501C184.365 48.0794 182.112 50.0412 179.226 51.4355C176.34 52.7974 173 53.4784 169.206 53.4784H152.425V19.4304ZM163.904 44.5286H168.719C170.341 44.5286 171.751 44.2206 172.951 43.6045C174.183 42.9884 175.14 42.0804 175.821 40.8806C176.502 39.6484 176.842 38.1568 176.842 36.4058C176.842 34.6871 176.502 33.2279 175.821 32.0282C175.14 30.8284 174.183 29.9204 172.951 29.3043C171.751 28.6882 170.341 28.3802 168.719 28.3802H163.904V44.5286Z" fill="black"/>
</svg>
