<svg width="68" height="68" viewBox="0 0 68 68" fill="none" xmlns="http://www.w3.org/2000/svg">
<g clip-path="url(#clip0_2005_1687)">
<path fill-rule="evenodd" clip-rule="evenodd" d="M1.37891 34.1002C1.37891 15.961 16.0824 1.25635 34.2227 1.25635C52.3631 1.25635 67.0666 15.961 67.0666 34.1002C67.0666 52.2394 52.3631 66.944 34.2227 66.944C16.0824 66.944 1.37891 52.2394 1.37891 34.1002Z" fill="#0081FE" fill-opacity="0.5"/>
<path fill-rule="evenodd" clip-rule="evenodd" d="M34.2233 1.96983C16.4769 1.96983 2.09288 16.3551 2.09288 34.1002C2.09288 51.8454 16.4769 66.2306 34.2233 66.2306C51.9696 66.2306 66.3537 51.8454 66.3537 34.1002C66.3537 16.3551 51.9696 1.96983 34.2233 1.96983ZM0.666016 34.1002C0.666016 15.5671 15.6889 0.542969 34.2233 0.542969C52.7577 0.542969 67.7805 15.5671 67.7805 34.1002C67.7805 52.6334 52.7577 67.6575 34.2233 67.6575C15.6889 67.6575 0.666016 52.6334 0.666016 34.1002Z" fill="#0081FE"/>
<path d="M34.0679 8.32568C19.92 8.32568 8.44922 19.7964 8.44922 33.9444C8.44922 48.0923 19.92 59.5631 34.0679 59.5631C48.2159 59.5631 59.6866 48.0923 59.6866 33.9444C59.6866 19.7964 48.2159 8.32568 34.0679 8.32568Z" fill="#0081FE"/>
<mask id="mask0_2005_1687" style="mask-type:luminance" maskUnits="userSpaceOnUse" x="22" y="23" width="24" height="22">
<path d="M45.5889 23.9829H22.2402V44.2184H45.5889V23.9829Z" fill="white"/>
</mask>
<g mask="url(#mask0_2005_1687)">
<mask id="mask1_2005_1687" style="mask-type:luminance" maskUnits="userSpaceOnUse" x="22" y="23" width="24" height="22">
<path d="M45.5889 23.9834H22.2402V44.2189H45.5889V23.9834Z" fill="white"/>
</mask>
<g mask="url(#mask1_2005_1687)">
<mask id="mask2_2005_1687" style="mask-type:luminance" maskUnits="userSpaceOnUse" x="22" y="23" width="24" height="22">
<path d="M45.5889 23.9844H22.2402V44.2199H45.5889V23.9844Z" fill="white"/>
</mask>
<g mask="url(#mask2_2005_1687)">
<path d="M35.6618 24.2351L28.8721 28.1136H24.1453C23.64 28.1136 23.1555 28.3163 22.7982 28.6771C22.4409 29.038 22.2402 29.5274 22.2402 30.0377V38.1666C22.2402 38.6768 22.4409 39.1663 22.7982 39.5271C23.1555 39.8879 23.64 40.0906 24.1453 40.0906H28.8721L35.6618 43.9691C35.9514 44.1352 36.279 44.2217 36.6119 44.2198C36.945 44.2179 37.2716 44.1277 37.5593 43.9583C37.8468 43.7888 38.0854 43.546 38.2509 43.2542C38.4164 42.9624 38.5032 42.6318 38.5025 42.2955V25.9087C38.5032 25.5724 38.4164 25.2418 38.2509 24.95C38.0854 24.6582 37.8468 24.4154 37.5593 24.246C37.2716 24.0765 36.945 23.9863 36.6119 23.9844C36.279 23.9825 35.9514 24.069 35.6618 24.2351Z" fill="white"/>
<path d="M41.7042 40.4134L40.7498 38.7816C41.5606 38.2992 42.2318 37.6103 42.6963 36.7838C43.1609 35.9573 43.4026 35.0222 43.3973 34.0719C43.392 33.1215 43.1398 32.1893 42.666 31.3681C42.1922 30.547 41.5133 29.8659 40.6973 29.3927L41.6366 27.7495C42.7373 28.3878 43.653 29.3068 44.2918 30.4145C44.9308 31.5222 45.2706 32.7798 45.2775 34.0618C45.2843 35.3437 44.958 36.6051 44.3309 37.7196C43.7038 38.8342 42.7981 39.7631 41.7042 40.4134Z" fill="white"/>
</g>
</g>
</g>
</g>
<defs>
<clipPath id="clip0_2005_1687">
<rect width="67.5556" height="67.5556" fill="white" transform="translate(0.447266 0.321777)"/>
</clipPath>
</defs>
</svg>
