<svg width="69" height="68" viewBox="0 0 69 68" fill="none" xmlns="http://www.w3.org/2000/svg">
<g clip-path="url(#clip0_2005_1712)">
<path fill-rule="evenodd" clip-rule="evenodd" d="M1.46484 34.1002C1.46484 15.961 16.1683 1.25635 34.3087 1.25635C52.4491 1.25635 67.1525 15.961 67.1525 34.1002C67.1525 52.2394 52.4491 66.944 34.3087 66.944C16.1683 66.944 1.46484 52.2394 1.46484 34.1002Z" fill="#0081FE" fill-opacity="0.5"/>
<path fill-rule="evenodd" clip-rule="evenodd" d="M34.3092 1.96983C16.5629 1.96983 2.17882 16.3551 2.17882 34.1002C2.17882 51.8454 16.5629 66.2306 34.3092 66.2306C52.0556 66.2306 66.4396 51.8454 66.4396 34.1002C66.4396 16.3551 52.0556 1.96983 34.3092 1.96983ZM0.751953 34.1002C0.751953 15.5671 15.7748 0.542969 34.3092 0.542969C52.8436 0.542969 67.8665 15.5671 67.8665 34.1002C67.8665 52.6334 52.8436 67.6575 34.3092 67.6575C15.7748 67.6575 0.751953 52.6334 0.751953 34.1002Z" fill="#0081FE"/>
<path d="M34.1539 8.32568C20.0059 8.32568 8.53516 19.7964 8.53516 33.9444C8.53516 48.0923 20.0059 59.5631 34.1539 59.5631C48.3018 59.5631 59.7726 48.0923 59.7726 33.9444C59.7726 19.7964 48.3018 8.32568 34.1539 8.32568Z" fill="#0081FE"/>
<path d="M33.9945 18.8459C30.5488 18.8459 27.754 21.6884 27.754 25.1903V32.9293H27.0606C26.8767 32.9293 26.7003 33.0035 26.5703 33.1355C26.4403 33.2676 26.3672 33.4466 26.3672 33.6334L26.3672 35.7459C26.3672 35.9327 26.4403 36.1117 26.5703 36.2438C26.7003 36.3759 26.8767 36.4501 27.0606 36.4501H30.5275V47.7167C30.5275 47.9035 30.6006 48.0826 30.7306 48.2147C30.8606 48.3467 31.037 48.4209 31.2209 48.4209C31.4048 48.4209 31.5812 48.3467 31.7112 48.2147C31.8412 48.0826 31.9143 47.9035 31.9143 47.7167V36.4501H36.0746V43.4917C36.0746 43.6785 36.1477 43.8576 36.2777 43.9896C36.4077 44.1217 36.5841 44.1959 36.768 44.1959C36.9519 44.1959 37.1282 44.1217 37.2583 43.9896C37.3883 43.8576 37.4614 43.6785 37.4614 43.4917V36.4501H40.9283C41.1122 36.4501 41.2886 36.3759 41.4186 36.2438C41.5486 36.1117 41.6217 35.9327 41.6217 35.7459V33.6334C41.6217 33.4466 41.5486 33.2676 41.4186 33.1355C41.2886 33.0035 41.1122 32.9293 40.9283 32.9293H40.2349V25.1903C40.2349 21.6884 37.4401 18.8459 33.9945 18.8459Z" fill="white"/>
</g>
<defs>
<clipPath id="clip0_2005_1712">
<rect width="67.5556" height="67.5556" fill="white" transform="translate(0.53125 0.321777)"/>
</clipPath>
</defs>
</svg>
