<svg width="68" height="69" viewBox="0 0 68 69" fill="none" xmlns="http://www.w3.org/2000/svg">
<g clip-path="url(#clip0_2005_1728)">
<path fill-rule="evenodd" clip-rule="evenodd" d="M1.37891 34.2335C1.37891 16.0943 16.0824 1.38965 34.2227 1.38965C52.3631 1.38965 67.0666 16.0943 67.0666 34.2335C67.0666 52.3727 52.3631 67.0773 34.2227 67.0773C16.0824 67.0773 1.37891 52.3727 1.37891 34.2335Z" fill="#0081FE" fill-opacity="0.5"/>
<path fill-rule="evenodd" clip-rule="evenodd" d="M34.2233 2.10313C16.4769 2.10313 2.09288 16.4884 2.09288 34.2335C2.09288 51.9787 16.4769 66.3639 34.2233 66.3639C51.9696 66.3639 66.3537 51.9787 66.3537 34.2335C66.3537 16.4884 51.9696 2.10313 34.2233 2.10313ZM0.666016 34.2335C0.666016 15.7004 15.6889 0.67627 34.2233 0.67627C52.7577 0.67627 67.7805 15.7004 67.7805 34.2335C67.7805 52.7667 52.7577 67.7908 34.2233 67.7908C15.6889 67.7908 0.666016 52.7667 0.666016 34.2335Z" fill="#0081FE"/>
<path d="M34.0679 8.45898C19.92 8.45898 8.44922 19.9297 8.44922 34.0777C8.44922 48.2256 19.92 59.6964 34.0679 59.6964C48.2159 59.6964 59.6866 48.2256 59.6866 34.0777C59.6866 19.9297 48.2159 8.45898 34.0679 8.45898Z" fill="#0081FE"/>
<path d="M35.5675 19.5449C35.5675 18.7168 34.8951 18.0459 34.067 18.0459C33.2389 18.0459 32.5664 18.7168 32.5664 19.5449V24.1521C33.0583 24.0817 33.5564 24.0453 34.067 24.0453C34.5775 24.0453 35.0757 24.0817 35.5675 24.1521V19.5449Z" fill="white"/>
<path d="M26.1286 24.4853L27.7785 26.1362C26.9754 26.738 26.2593 27.4537 25.6585 28.2569L24.0054 26.606C23.4201 26.021 23.4201 25.0703 24.0054 24.4853C24.5906 23.8988 25.5433 23.8988 26.1286 24.4853Z" fill="white"/>
<path d="M19.067 33.0454H23.6713C23.6029 33.5364 23.5655 34.037 23.5655 34.546C23.5655 35.055 23.6029 35.5556 23.6713 36.0465H19.067C18.2358 36.0465 17.5664 35.3744 17.5664 34.546C17.5664 33.7175 18.2358 33.0454 19.067 33.0454Z" fill="white"/>
<path d="M24.0054 42.4854L25.6585 40.8345C26.2593 41.6389 26.9754 42.3534 27.7785 42.9552L26.1286 44.6061C25.5433 45.1926 24.5906 45.1926 24.0054 44.6061C23.4201 44.0211 23.4201 43.0704 24.0054 42.4854Z" fill="white"/>
<path d="M32.5664 49.5466V44.9395C33.0583 45.0098 33.5564 45.0465 34.067 45.0465C34.5775 45.0465 35.0757 45.0098 35.5675 44.9395V49.5466C35.5675 50.3747 34.8951 51.0456 34.067 51.0456C33.2389 51.0456 32.5664 50.3747 32.5664 49.5466Z" fill="white"/>
<path d="M42.0055 44.6056L40.3555 42.9547C41.1587 42.3529 41.8747 41.6384 42.4755 40.834L44.1287 42.4849C44.7139 43.0698 44.7139 44.0206 44.1287 44.6056C43.5434 45.1921 42.5907 45.1921 42.0055 44.6056Z" fill="white"/>
<path d="M49.0653 36.0465H44.4609C44.5294 35.5556 44.5668 35.055 44.5668 34.546C44.5668 34.037 44.5294 33.5364 44.4609 33.0454H49.0653C49.8934 33.0454 50.5659 33.7175 50.5659 34.546C50.5659 35.3744 49.8934 36.0465 49.0653 36.0465Z" fill="white"/>
<path d="M44.1287 26.606L42.4755 28.2569C41.8747 27.4537 41.1587 26.738 40.3555 26.1362L42.0055 24.4853C42.5907 23.8988 43.5434 23.8988 44.1287 24.4853C44.7139 25.0703 44.7139 26.0207 44.1287 26.606Z" fill="white"/>
<path d="M34.066 42.0451C38.2065 42.0451 41.5657 38.6869 41.5657 34.5455C41.5657 30.4025 38.2065 27.0459 34.066 27.0459C29.9224 27.0459 26.5664 30.4025 26.5664 34.5455C26.5664 38.6869 29.9224 42.0451 34.066 42.0451Z" fill="white"/>
</g>
<defs>
<clipPath id="clip0_2005_1728">
<rect width="67.5556" height="67.5556" fill="white" transform="translate(0.447266 0.455566)"/>
</clipPath>
</defs>
</svg>
