<svg width="69" height="69" viewBox="0 0 69 69" fill="none" xmlns="http://www.w3.org/2000/svg">
<g clip-path="url(#clip0_2005_1751)">
<path fill-rule="evenodd" clip-rule="evenodd" d="M1.46484 34.234C1.46484 16.0948 16.1683 1.39014 34.3087 1.39014C52.4491 1.39014 67.1525 16.0948 67.1525 34.234C67.1525 52.3731 52.4491 67.0778 34.3087 67.0778C16.1683 67.0778 1.46484 52.3731 1.46484 34.234Z" fill="#0081FE" fill-opacity="0.5"/>
<path fill-rule="evenodd" clip-rule="evenodd" d="M34.3092 2.10362C16.5629 2.10362 2.17882 16.4888 2.17882 34.234C2.17882 51.9792 16.5629 66.3644 34.3092 66.3644C52.0556 66.3644 66.4396 51.9792 66.4396 34.234C66.4396 16.4888 52.0556 2.10362 34.3092 2.10362ZM0.751953 34.234C0.751953 15.7008 15.7748 0.676758 34.3092 0.676758C52.8436 0.676758 67.8665 15.7008 67.8665 34.234C67.8665 52.7672 52.8436 67.7913 34.3092 67.7913C15.7748 67.7913 0.751953 52.7672 0.751953 34.234Z" fill="#0081FE"/>
<path d="M34.1539 8.45947C20.0059 8.45947 8.53516 19.9302 8.53516 34.0782C8.53516 48.2261 20.0059 59.6969 34.1539 59.6969C48.3018 59.6969 59.7726 48.2261 59.7726 34.0782C59.7726 19.9302 48.3018 8.45947 34.1539 8.45947Z" fill="#0081FE"/>
<mask id="mask0_2005_1751" style="mask-type:luminance" maskUnits="userSpaceOnUse" x="22" y="22" width="23" height="23">
<path d="M44.43 22.7163H22.9492V44.8197H44.43V22.7163Z" fill="white"/>
</mask>
<g mask="url(#mask0_2005_1751)">
<mask id="mask1_2005_1751" style="mask-type:luminance" maskUnits="userSpaceOnUse" x="22" y="22" width="23" height="23">
<path d="M44.432 22.7153H22.9512V44.8188H44.432V22.7153Z" fill="white"/>
</mask>
<g mask="url(#mask1_2005_1751)">
<mask id="mask2_2005_1751" style="mask-type:luminance" maskUnits="userSpaceOnUse" x="22" y="22" width="23" height="23">
<path d="M44.4339 22.7144H22.9531V44.8178H44.4339V22.7144Z" fill="white"/>
</mask>
<g mask="url(#mask2_2005_1751)">
<path d="M24.6415 23.0264C23.8806 23.0264 23.2637 23.6523 23.2637 24.4245C23.2637 25.6701 24.7478 26.2939 25.6158 25.4131C26.4839 24.5324 25.8691 23.0264 24.6415 23.0264Z" fill="white"/>
<path d="M23.2637 32.5735C23.2637 34.3349 25.3626 35.2172 26.5901 33.9715L34.0502 26.4016C35.2776 25.1561 34.4083 23.0264 32.6724 23.0264" fill="white"/>
<path d="M44.4332 24.7141C44.4332 23.782 43.6885 23.0264 42.77 23.0264C42.3288 23.0264 41.9058 23.2042 41.5938 23.5207L23.7508 41.6265C23.4389 41.943 23.2637 42.3722 23.2637 42.8197C23.2637 43.7517 24.0084 44.5073 24.9269 44.5073C25.368 44.5073 25.7911 44.3294 26.103 44.0129L43.946 25.9075C44.2579 25.5909 44.4332 25.1617 44.4332 24.7141Z" fill="white"/>
<path d="M44.4321 34.2609C44.4321 32.7573 42.6406 32.0043 41.5928 33.0675L33.1585 41.6259C32.1107 42.6892 32.8528 44.5071 34.3346 44.5071C34.7756 44.5071 35.1987 44.3292 35.5106 44.0127L43.945 35.4543C44.2569 35.1378 44.4321 34.7085 44.4321 34.2609Z" fill="white"/>
<path d="M42.0801 42.1208C41.2121 43.0016 41.827 44.5076 43.0545 44.5076C43.8155 44.5076 44.4324 43.8817 44.4324 43.1095C44.4324 41.8639 42.9482 41.24 42.0801 42.1208Z" fill="white"/>
</g>
</g>
</g>
</g>
<defs>
<clipPath id="clip0_2005_1751">
<rect width="67.5556" height="67.5556" fill="white" transform="translate(0.53125 0.456055)"/>
</clipPath>
</defs>
</svg>
