<svg width="69" height="68" viewBox="0 0 69 68" fill="none" xmlns="http://www.w3.org/2000/svg">
<g clip-path="url(#clip0_972_1609)">
<path fill-rule="evenodd" clip-rule="evenodd" d="M1.46484 34.0221C1.46484 15.8829 16.1683 1.17822 34.3087 1.17822C52.4491 1.17822 67.1525 15.8829 67.1525 34.0221C67.1525 52.1612 52.4491 66.8659 34.3087 66.8659C16.1683 66.8659 1.46484 52.1612 1.46484 34.0221Z" fill="#0081FE" fill-opacity="0.5"/>
<path fill-rule="evenodd" clip-rule="evenodd" d="M34.3092 1.89171C16.5629 1.89171 2.17882 16.2769 2.17882 34.0221C2.17882 51.7673 16.5629 66.1525 34.3092 66.1525C52.0556 66.1525 66.4396 51.7673 66.4396 34.0221C66.4396 16.2769 52.0556 1.89171 34.3092 1.89171ZM0.751953 34.0221C0.751953 15.4889 15.7748 0.464844 34.3092 0.464844C52.8436 0.464844 67.8665 15.4889 67.8665 34.0221C67.8665 52.5553 52.8436 67.5794 34.3092 67.5794C15.7748 67.5794 0.751953 52.5553 0.751953 34.0221Z" fill="#0081FE"/>
<path d="M34.1539 8.24756C20.0059 8.24756 8.53516 19.7183 8.53516 33.8663C8.53516 48.0142 20.0059 59.485 34.1539 59.485C48.3018 59.485 59.7726 48.0142 59.7726 33.8663C59.7726 19.7183 48.3018 8.24756 34.1539 8.24756Z" fill="#0081FE"/>
<path d="M37.8356 37.9972C35.7965 40.0363 32.4903 40.0363 30.4512 37.9972C28.4121 35.9581 28.4121 32.6522 30.4512 30.6131C32.4903 28.5736 35.7965 28.5736 37.8356 30.6131C39.8747 32.6522 39.8747 35.9581 37.8356 37.9972Z" fill="white"/>
<path d="M27.2019 22.3418C28.4253 23.5652 28.36 25.6149 27.0524 26.92C25.748 28.225 23.6995 28.2913 22.4761 27.0679C21.2526 25.8444 21.318 23.7947 22.6224 22.4897C23.9268 21.1846 25.9784 21.1183 27.2019 22.3418Z" fill="white"/>
<path d="M46.401 41.5431C47.6245 42.7666 47.556 44.8163 46.2516 46.1213C44.9472 47.4263 42.8988 47.4926 41.6753 46.2692C40.4518 45.0457 40.5172 42.9957 41.8216 41.6907C43.126 40.3856 45.1776 40.3196 46.401 41.5431Z" fill="white"/>
<path d="M48.013 32.4783C49.0216 32.4783 49.8404 33.2964 49.8404 34.3057C49.8404 35.315 49.0216 36.1331 48.013 36.1331C47.0043 36.1331 46.1855 35.315 46.1855 34.3057C46.1855 33.2964 47.0043 32.4783 48.013 32.4783Z" fill="white"/>
<path d="M20.8606 32.4783C21.8724 32.4783 22.6912 33.2964 22.6912 34.3057C22.6912 35.315 21.8724 36.1331 20.8606 36.1331C19.852 36.1331 19.0332 35.315 19.0332 34.3057C19.0332 33.2964 19.852 32.4783 20.8606 32.4783Z" fill="white"/>
<path d="M36.2681 47.8809C36.2681 48.8902 35.4494 49.7084 34.4407 49.7084C33.432 49.7084 32.6133 48.8902 32.6133 47.8809C32.6133 46.8717 33.432 46.0532 34.4407 46.0532C35.4494 46.0532 36.2681 46.8717 36.2681 47.8809Z" fill="white"/>
<path d="M36.2681 20.7285C36.2681 21.7378 35.4494 22.556 34.4407 22.556C33.432 22.556 32.6133 21.7378 32.6133 20.7285C32.6133 19.7193 33.432 18.9011 34.4407 18.9011C35.4494 18.9011 36.2681 19.7193 36.2681 20.7285Z" fill="white"/>
<path d="M22.4762 41.5421C23.6997 40.3186 25.6827 40.3186 26.9062 41.5421C28.1297 42.7656 28.1297 44.749 26.9062 45.9725C25.6827 47.1959 23.6997 47.1959 22.4762 45.9725C21.2527 44.749 21.2527 42.7656 22.4762 41.5421Z" fill="white"/>
<path d="M41.6754 22.3409C42.8989 21.1175 44.882 21.1175 46.1054 22.3409C47.3289 23.5644 47.3289 25.5481 46.1054 26.7716C44.882 27.9951 42.8989 27.9951 41.6754 26.7716C40.4519 25.5481 40.4519 23.5644 41.6754 22.3409Z" fill="white"/>
</g>
<defs>
<clipPath id="clip0_972_1609">
<rect width="67.5556" height="67.5556" fill="white" transform="translate(0.53125 0.244141)"/>
</clipPath>
</defs>
</svg>
