<svg width="69" height="68" viewBox="0 0 69 68" fill="none" xmlns="http://www.w3.org/2000/svg">
<g clip-path="url(#clip0_2005_1656)">
<path fill-rule="evenodd" clip-rule="evenodd" d="M1.46484 34.1556C1.46484 16.0164 16.1683 1.31177 34.3087 1.31177C52.4491 1.31177 67.1525 16.0164 67.1525 34.1556C67.1525 52.2948 52.4491 66.9994 34.3087 66.9994C16.1683 66.9994 1.46484 52.2948 1.46484 34.1556Z" fill="#0081FE" fill-opacity="0.5"/>
<path fill-rule="evenodd" clip-rule="evenodd" d="M34.3092 2.02501C16.5629 2.02501 2.17882 16.4102 2.17882 34.1554C2.17882 51.9006 16.5629 66.2858 34.3092 66.2858C52.0556 66.2858 66.4396 51.9006 66.4396 34.1554C66.4396 16.4102 52.0556 2.02501 34.3092 2.02501ZM0.751953 34.1554C0.751953 15.6222 15.7748 0.598145 34.3092 0.598145C52.8436 0.598145 67.8665 15.6222 67.8665 34.1554C67.8665 52.6886 52.8436 67.7127 34.3092 67.7127C15.7748 67.7127 0.751953 52.6886 0.751953 34.1554Z" fill="#0081FE"/>
<path d="M34.1539 8.38086C20.0059 8.38086 8.53516 19.8516 8.53516 33.9996C8.53516 48.1475 20.0059 59.6183 34.1539 59.6183C48.3018 59.6183 59.7726 48.1475 59.7726 33.9996C59.7726 19.8516 48.3018 8.38086 34.1539 8.38086Z" fill="#0081FE"/>
<path fill-rule="evenodd" clip-rule="evenodd" d="M35.5141 41.2967C37.4816 39.3522 38.6989 36.6622 38.6989 33.6904C38.6989 30.7185 37.4816 28.0288 35.5141 26.084C36.7874 25.3748 38.2568 24.9701 39.8196 24.9701C44.6761 24.9701 48.6142 28.8743 48.6142 33.6904C48.6142 38.5064 44.6761 42.4106 39.8196 42.4106C38.2568 42.4106 36.7874 42.0062 35.5141 41.2967ZM33.8423 24.731C32.1301 23.6053 30.0754 22.95 27.8651 22.95C21.8816 22.95 17.0312 27.7585 17.0312 33.6904C17.0312 39.6222 21.8816 44.4308 27.8651 44.4308C30.0754 44.4308 32.1301 43.7754 33.8423 42.65C35.5545 43.7754 37.6092 44.4308 39.8196 44.4308C45.8031 44.4308 50.6534 39.6222 50.6534 33.6904C50.6534 27.7585 45.8031 22.95 39.8196 22.95C37.6092 22.95 35.5545 23.6053 33.8423 24.731Z" fill="white"/>
</g>
<defs>
<clipPath id="clip0_2005_1656">
<rect width="67.5556" height="67.5556" fill="white" transform="translate(0.53125 0.377441)"/>
</clipPath>
</defs>
</svg>
