<svg width="68" height="68" viewBox="0 0 68 68" fill="none" xmlns="http://www.w3.org/2000/svg">
<g clip-path="url(#clip0_2005_1633)">
<path fill-rule="evenodd" clip-rule="evenodd" d="M1.37891 34.1554C1.37891 16.0162 16.0824 1.31152 34.2227 1.31152C52.3631 1.31152 67.0666 16.0162 67.0666 34.1554C67.0666 52.2945 52.3631 66.9992 34.2227 66.9992C16.0824 66.9992 1.37891 52.2945 1.37891 34.1554Z" fill="#0081FE" fill-opacity="0.5"/>
<path fill-rule="evenodd" clip-rule="evenodd" d="M34.2233 2.02501C16.4769 2.02501 2.09288 16.4102 2.09288 34.1554C2.09288 51.9006 16.4769 66.2858 34.2233 66.2858C51.9696 66.2858 66.3537 51.9006 66.3537 34.1554C66.3537 16.4102 51.9696 2.02501 34.2233 2.02501ZM0.666016 34.1554C0.666016 15.6222 15.6889 0.598145 34.2233 0.598145C52.7577 0.598145 67.7805 15.6222 67.7805 34.1554C67.7805 52.6886 52.7577 67.7127 34.2233 67.7127C15.6889 67.7127 0.666016 52.6886 0.666016 34.1554Z" fill="#0081FE"/>
<path d="M34.0679 8.38086C19.92 8.38086 8.44922 19.8516 8.44922 33.9996C8.44922 48.1475 19.92 59.6183 34.0679 59.6183C48.2159 59.6183 59.6866 48.1475 59.6866 33.9996C59.6866 19.8516 48.2159 8.38086 34.0679 8.38086Z" fill="#0081FE"/>
<path d="M35.5675 19.4668C35.5675 18.6387 34.8951 17.9678 34.067 17.9678C33.2389 17.9678 32.5664 18.6387 32.5664 19.4668V24.0739C33.0583 24.0036 33.5564 23.9671 34.067 23.9671C34.5775 23.9671 35.0757 24.0036 35.5675 24.0739V19.4668Z" fill="white"/>
<path d="M26.1286 24.4074L27.7785 26.0583C26.9754 26.6601 26.2593 27.3758 25.6585 28.179L24.0054 26.5281C23.4201 25.9431 23.4201 24.9924 24.0054 24.4074C24.5906 23.8209 25.5433 23.8209 26.1286 24.4074Z" fill="white"/>
<path d="M19.067 32.9668H23.6713C23.6029 33.4577 23.5655 33.9583 23.5655 34.4673C23.5655 34.9763 23.6029 35.4769 23.6713 35.9679H19.067C18.2358 35.9679 17.5664 35.2958 17.5664 34.4673C17.5664 33.6389 18.2358 32.9668 19.067 32.9668Z" fill="white"/>
<path d="M24.0054 42.4073L25.6585 40.7563C26.2593 41.5608 26.9754 42.2753 27.7785 42.877L26.1286 44.5279C25.5433 45.1145 24.5906 45.1145 24.0054 44.5279C23.4201 43.943 23.4201 42.9922 24.0054 42.4073Z" fill="white"/>
<path d="M32.5664 49.4685V44.8613C33.0583 44.9317 33.5564 44.9684 34.067 44.9684C34.5775 44.9684 35.0757 44.9317 35.5675 44.8613V49.4685C35.5675 50.2966 34.8951 50.9675 34.067 50.9675C33.2389 50.9675 32.5664 50.2966 32.5664 49.4685Z" fill="white"/>
<path d="M42.0055 44.5274L40.3555 42.8765C41.1587 42.2748 41.8747 41.5603 42.4755 40.7559L44.1287 42.4068C44.7139 42.9917 44.7139 43.9425 44.1287 44.5274C43.5434 45.114 42.5907 45.114 42.0055 44.5274Z" fill="white"/>
<path d="M49.0653 35.9679H44.4609C44.5294 35.4769 44.5668 34.9763 44.5668 34.4673C44.5668 33.9583 44.5294 33.4577 44.4609 32.9668H49.0653C49.8934 32.9668 50.5659 33.6389 50.5659 34.4673C50.5659 35.2958 49.8934 35.9679 49.0653 35.9679Z" fill="white"/>
<path d="M44.1287 26.5278L42.4755 28.1788C41.8747 27.3756 41.1587 26.6598 40.3555 26.0581L42.0055 24.4072C42.5907 23.8207 43.5434 23.8207 44.1287 24.4072C44.7139 24.9921 44.7139 25.9426 44.1287 26.5278Z" fill="white"/>
<path d="M34.066 41.967C38.2065 41.967 41.5657 38.6088 41.5657 34.4674C41.5657 30.3244 38.2065 26.9678 34.066 26.9678C29.9224 26.9678 26.5664 30.3244 26.5664 34.4674C26.5664 38.6088 29.9224 41.967 34.066 41.967Z" fill="white"/>
</g>
<defs>
<clipPath id="clip0_2005_1633">
<rect width="67.5556" height="67.5556" fill="white" transform="translate(0.447266 0.377441)"/>
</clipPath>
</defs>
</svg>
