<svg width="68" height="68" viewBox="0 0 68 68" fill="none" xmlns="http://www.w3.org/2000/svg">
<g clip-path="url(#clip0_2005_1597)">
<path fill-rule="evenodd" clip-rule="evenodd" d="M1.37891 34.0216C1.37891 15.8824 16.0824 1.17773 34.2227 1.17773C52.3631 1.17773 67.0666 15.8824 67.0666 34.0216C67.0666 52.1607 52.3631 66.8654 34.2227 66.8654C16.0824 66.8654 1.37891 52.1607 1.37891 34.0216Z" fill="#0081FE" fill-opacity="0.5"/>
<path fill-rule="evenodd" clip-rule="evenodd" d="M34.2233 1.89122C16.4769 1.89122 2.09288 16.2764 2.09288 34.0216C2.09288 51.7668 16.4769 66.152 34.2233 66.152C51.9696 66.152 66.3537 51.7668 66.3537 34.0216C66.3537 16.2764 51.9696 1.89122 34.2233 1.89122ZM0.666016 34.0216C0.666016 15.4884 15.6889 0.464355 34.2233 0.464355C52.7577 0.464355 67.7805 15.4884 67.7805 34.0216C67.7805 52.5548 52.7577 67.5789 34.2233 67.5789C15.6889 67.5789 0.666016 52.5548 0.666016 34.0216Z" fill="#0081FE"/>
<path d="M34.0679 8.24707C19.92 8.24707 8.44922 19.7178 8.44922 33.8658C8.44922 48.0137 19.92 59.4845 34.0679 59.4845C48.2159 59.4845 59.6866 48.0137 59.6866 33.8658C59.6866 19.7178 48.2159 8.24707 34.0679 8.24707Z" fill="#0081FE"/>
<path d="M40.9194 22.1915C40.9194 18.323 37.7833 15.187 33.9148 15.187C30.0462 15.187 26.9102 18.323 26.9102 22.1915V32.4652C26.9102 36.3337 30.0462 39.4697 33.9148 39.4697C37.7833 39.4697 40.9194 36.3337 40.9194 32.4652V22.1915Z" fill="white"/>
<path d="M45.8995 32.255C45.9033 32.1 45.8757 31.9458 45.8181 31.8015C45.7605 31.6572 45.6741 31.5257 45.5641 31.4148C45.4541 31.3038 45.3227 31.2156 45.1775 31.1554C45.0323 31.0952 44.8764 31.0642 44.7189 31.0642C44.5614 31.0642 44.4054 31.0952 44.2603 31.1554C44.1151 31.2156 43.9836 31.3038 43.8736 31.4148C43.7636 31.5257 43.6773 31.6572 43.6197 31.8015C43.5621 31.9458 43.5344 32.1 43.5383 32.255C43.5383 37.5617 39.1509 41.8794 33.7585 41.8794C28.3662 41.8794 23.9787 37.5617 23.9787 32.255C23.9826 32.1 23.9549 31.9458 23.8973 31.8015C23.8398 31.6572 23.7534 31.5257 23.6434 31.4148C23.5334 31.3038 23.4019 31.2156 23.2568 31.1554C23.1116 31.0952 22.9557 31.0642 22.7981 31.0642C22.6406 31.0642 22.4847 31.0952 22.3395 31.1554C22.1944 31.2156 22.0629 31.3038 21.9529 31.4148C21.8429 31.5257 21.7565 31.6572 21.6989 31.8015C21.6413 31.9458 21.6137 32.1 21.6175 32.255C21.6175 38.451 26.4354 43.5606 32.5776 44.1463V48.976H27.8552C27.5471 48.9835 27.2541 49.1092 27.0389 49.3263C26.8237 49.5433 26.7032 49.8346 26.7032 50.1379C26.7032 50.4412 26.8237 50.7325 27.0389 50.9495C27.2541 51.1666 27.5471 51.2923 27.8552 51.2997H39.6619C39.97 51.2923 40.2629 51.1666 40.4781 50.9495C40.6933 50.7325 40.8138 50.4412 40.8138 50.1379C40.8138 49.8346 40.6933 49.5433 40.4781 49.3263C40.2629 49.1092 39.97 48.9835 39.6619 48.976H34.9395V44.1456C41.0816 43.5599 45.8995 38.451 45.8995 32.255Z" fill="white"/>
</g>
<defs>
<clipPath id="clip0_2005_1597">
<rect width="67.5556" height="67.5556" fill="white" transform="translate(0.447266 0.244141)"/>
</clipPath>
</defs>
</svg>
