<svg width="68" height="69" viewBox="0 0 68 69" fill="none" xmlns="http://www.w3.org/2000/svg">
<g clip-path="url(#clip0_2005_1895)">
<path fill-rule="evenodd" clip-rule="evenodd" d="M1.37891 34.233C1.37891 16.0938 16.0824 1.38916 34.2227 1.38916C52.3631 1.38916 67.0666 16.0938 67.0666 34.233C67.0666 52.3722 52.3631 67.0768 34.2227 67.0768C16.0824 67.0768 1.37891 52.3722 1.37891 34.233Z" fill="#0081FE" fill-opacity="0.5"/>
<path fill-rule="evenodd" clip-rule="evenodd" d="M34.2233 2.10264C16.4769 2.10264 2.09288 16.4879 2.09288 34.233C2.09288 51.9782 16.4769 66.3634 34.2233 66.3634C51.9696 66.3634 66.3537 51.9782 66.3537 34.233C66.3537 16.4879 51.9696 2.10264 34.2233 2.10264ZM0.666016 34.233C0.666016 15.6999 15.6889 0.675781 34.2233 0.675781C52.7577 0.675781 67.7805 15.6999 67.7805 34.233C67.7805 52.7662 52.7577 67.7903 34.2233 67.7903C15.6889 67.7903 0.666016 52.7662 0.666016 34.233Z" fill="#0081FE"/>
<path d="M34.0679 8.4585C19.92 8.4585 8.44922 19.9292 8.44922 34.0772C8.44922 48.2252 19.92 59.6959 34.0679 59.6959C48.2159 59.6959 59.6866 48.2252 59.6866 34.0772C59.6866 19.9292 48.2159 8.4585 34.0679 8.4585Z" fill="#0081FE"/>
<path d="M39.1898 38.8531L39.0499 38.1595L38.7445 36.766C38.439 35.9141 38.1245 35.0356 37.754 34.2198L36.4942 31.9408C35.0424 29.669 34.122 27.504 34.0139 25.4803C33.9574 24.4546 34.2148 23.3892 34.7781 22.2413C35.3423 21.1039 36.2691 19.9431 37.3233 18.8364L37.3897 18.7667C37.5016 18.6484 37.5659 18.4876 37.5553 18.3143C37.5348 17.9759 37.2364 17.7178 36.8891 17.7379C35.9545 17.7919 35.1024 17.9856 34.2508 18.3107C33.8082 18.4429 33.4183 18.6739 32.9935 18.8702C32.5881 19.0952 32.1993 19.3592 31.8017 19.6265C30.2777 20.7573 28.9703 22.4981 28.4218 24.5161C28.1912 25.5029 27.9779 26.5585 28.0552 27.5459C28.0187 28.581 28.2479 29.5071 28.448 30.4592C28.5248 30.9544 28.7216 31.357 28.8774 31.7988L29.3792 33.0997C29.7789 33.9037 30.2354 34.6654 30.6703 35.4461L31.7174 37.1783C32.0469 37.7321 32.2845 38.295 32.6017 38.8487C33.0396 39.9444 33.4895 41.0377 33.5984 42.1029C33.7264 43.17 33.6419 44.28 33.1989 45.4804C32.776 46.686 31.9539 47.919 30.9265 49.1112L30.8893 49.1542C30.8243 49.2302 30.7883 49.3295 30.7962 49.4359C30.8124 49.6535 31.0065 49.817 31.2298 49.8011C32.1459 49.7364 32.9911 49.4954 33.8291 49.1368C34.6624 48.7775 35.4583 48.2811 36.1762 47.6488C37.6225 46.3963 38.6817 44.5367 39.0801 42.5509C39.1542 42.0597 39.2216 41.5603 39.2808 41.0555C39.2935 40.5644 39.2581 40.0816 39.2392 39.588C39.2235 39.3443 39.2213 39.0903 39.1898 38.8531Z" fill="white"/>
<path d="M47.4338 35.8559C47.4253 35.7264 47.4242 35.5915 47.4075 35.4654L47.3331 35.0969L47.1709 34.3565C47.0085 33.9038 46.8414 33.4371 46.6446 33.0035L45.9752 31.7925C45.2037 30.5854 44.7146 29.435 44.6572 28.3596C44.6272 27.8147 44.764 27.2486 45.0633 26.6386C45.3631 26.0343 45.8555 25.4174 46.4157 24.8294L46.451 24.7923C46.5104 24.7295 46.5446 24.6441 46.539 24.5519C46.528 24.3722 46.3696 24.235 46.185 24.2457C45.6884 24.2744 45.2356 24.3773 44.7831 24.5501C44.5479 24.6203 44.3407 24.7431 44.115 24.8473C43.8996 24.9668 43.693 25.1071 43.4818 25.2492C42.6719 25.8501 41.9773 26.7751 41.6858 27.8473C41.5632 28.3717 41.45 28.9326 41.491 29.4572C41.4716 30.0073 41.5933 30.4994 41.6997 31.0053C41.7405 31.2684 41.8451 31.4823 41.9279 31.7171L42.1944 32.4083C42.4069 32.8356 42.6495 33.2402 42.8805 33.6552L43.437 34.5755C43.6121 34.8698 43.7383 35.1689 43.9068 35.4632C44.1395 36.0453 44.3786 36.6263 44.4364 37.1923C44.5045 37.7593 44.4596 38.3491 44.2241 38.987C43.9995 39.6275 43.5626 40.2827 43.0167 40.9161L42.9969 40.939C42.9624 40.9793 42.9432 41.0322 42.9474 41.0887C42.9561 41.2044 43.0592 41.2912 43.1779 41.2829C43.6646 41.2484 44.1137 41.1204 44.559 40.9298C45.0018 40.7388 45.4247 40.4751 45.8062 40.1391C46.5747 39.4736 47.1375 38.4855 47.3491 37.4303C47.3886 37.1693 47.4243 36.904 47.4558 36.6358C47.4626 36.3748 47.4437 36.1182 47.4338 35.8559Z" fill="white"/>
<path d="M25.3626 37.4552L25.2882 37.0867L25.126 36.3462C24.9636 35.8936 24.7965 35.4268 24.5996 34.9933L23.9302 33.7823C23.1588 32.5751 22.6697 31.4248 22.6123 30.3494C22.5823 29.8044 22.7191 29.2383 23.0184 28.6284C23.3181 28.024 23.8107 27.4072 24.3707 26.8192L24.406 26.7821C24.4655 26.7193 24.4997 26.6338 24.4941 26.5417C24.4831 26.3619 24.3246 26.2248 24.14 26.2354C23.6434 26.2642 23.1907 26.3671 22.7381 26.5398C22.503 26.6101 22.2958 26.7328 22.0701 26.8372C21.8547 26.9566 21.6481 27.0969 21.4368 27.239C20.627 27.8399 19.9323 28.7649 19.6409 29.8371C19.5183 30.3615 19.405 30.9223 19.4461 31.447C19.4267 31.997 19.5484 32.4892 19.6548 32.9951C19.6956 33.2582 19.8002 33.4721 19.883 33.7068L20.1495 34.3981C20.362 34.8253 20.6046 35.23 20.8356 35.6449L21.392 36.5653C21.5671 36.8596 21.6933 37.1587 21.8619 37.4529C22.0946 38.0351 22.3337 38.6161 22.3915 39.182C22.4595 39.749 22.4146 40.3388 22.1792 40.9767C21.9545 41.6173 21.5177 42.2724 20.9717 42.9059L20.952 42.9288C20.9175 42.9691 20.8983 43.022 20.9025 43.0785C20.9111 43.1942 21.0143 43.281 21.1329 43.2726C21.6197 43.2382 22.0688 43.1101 22.5141 42.9196C22.9569 42.7286 23.3798 42.4648 23.7613 42.1289C24.5298 41.4634 25.0926 40.4752 25.3042 39.4201C25.3436 39.1591 25.3794 38.8938 25.4109 38.6255C25.4177 38.3645 25.3988 38.108 25.3888 37.8457C25.3804 37.7162 25.3793 37.5813 25.3626 37.4552Z" fill="white"/>
</g>
<defs>
<clipPath id="clip0_2005_1895">
<rect width="67.5556" height="67.5556" fill="white" transform="translate(0.447266 0.45459)"/>
</clipPath>
</defs>
</svg>
