<svg width="68" height="69" viewBox="0 0 68 69" fill="none" xmlns="http://www.w3.org/2000/svg">
<g clip-path="url(#clip0_2005_1939)">
<path fill-rule="evenodd" clip-rule="evenodd" d="M1.37891 34.6319C1.37891 16.4927 16.0824 1.78809 34.2227 1.78809C52.3631 1.78809 67.0666 16.4927 67.0666 34.6319C67.0666 52.7711 52.3631 67.4757 34.2227 67.4757C16.0824 67.4757 1.37891 52.7711 1.37891 34.6319Z" fill="#0081FE" fill-opacity="0.5"/>
<path fill-rule="evenodd" clip-rule="evenodd" d="M34.2233 2.50206C16.4769 2.50206 2.09288 16.8873 2.09288 34.6325C2.09288 52.3776 16.4769 66.7629 34.2233 66.7629C51.9696 66.7629 66.3537 52.3776 66.3537 34.6325C66.3537 16.8873 51.9696 2.50206 34.2233 2.50206ZM0.666016 34.6325C0.666016 16.0993 15.6889 1.0752 34.2233 1.0752C52.7577 1.0752 67.7805 16.0993 67.7805 34.6325C67.7805 53.1656 52.7577 68.1897 34.2233 68.1897C15.6889 68.1897 0.666016 53.1656 0.666016 34.6325Z" fill="#0081FE"/>
<path d="M34.0679 8.8584C19.92 8.8584 8.44922 20.3291 8.44922 34.4771C8.44922 48.6251 19.92 60.0958 34.0679 60.0958C48.2159 60.0958 59.6866 48.6251 59.6866 34.4771C59.6866 20.3291 48.2159 8.8584 34.0679 8.8584Z" fill="#0081FE"/>
<path fill-rule="evenodd" clip-rule="evenodd" d="M33.757 18.4424C32.3815 18.4424 31.2665 19.5574 31.2665 20.9329V22.2407C27.3103 23.3866 24.4178 27.0366 24.4178 31.3621V37.2781C24.4178 37.7758 24.2201 38.2531 23.8682 38.6051L21.6711 40.8022C21.4365 41.0368 21.3047 41.355 21.3047 41.6868V42.4081C21.3047 43.099 21.8648 43.6591 22.5557 43.6591H45.2702C45.9612 43.6591 46.5213 43.099 46.5213 42.4081V41.6868C46.5213 41.355 46.3895 41.0368 46.1549 40.8022L43.9577 38.6051C43.6058 38.2531 43.4081 37.7758 43.4081 37.2781V31.3621C43.4081 26.9237 40.3628 23.1965 36.2475 22.1561V20.9329C36.2475 19.5574 35.1325 18.4424 33.757 18.4424ZM37.4926 45.6821C37.4926 46.6316 37.1154 47.5423 36.444 48.2137C35.7726 48.8851 34.862 49.2623 33.9125 49.2623C32.9629 49.2623 32.0523 48.8851 31.3809 48.2137C30.7095 47.5423 30.3323 46.6316 30.3323 45.6821H33.9125H37.4926Z" fill="white"/>
</g>
<defs>
<clipPath id="clip0_2005_1939">
<rect width="67.5556" height="67.5556" fill="white" transform="translate(0.447266 0.854492)"/>
</clipPath>
</defs>
</svg>
