<svg width="69" height="69" viewBox="0 0 69 69" fill="none" xmlns="http://www.w3.org/2000/svg">
<g clip-path="url(#clip0_2005_1912)">
<path fill-rule="evenodd" clip-rule="evenodd" d="M1.46484 34.2325C1.46484 16.0933 16.1683 1.38867 34.3087 1.38867C52.4491 1.38867 67.1525 16.0933 67.1525 34.2325C67.1525 52.3717 52.4491 67.0763 34.3087 67.0763C16.1683 67.0763 1.46484 52.3717 1.46484 34.2325Z" fill="#0081FE" fill-opacity="0.5"/>
<path fill-rule="evenodd" clip-rule="evenodd" d="M34.3092 2.10264C16.5629 2.10264 2.17882 16.4879 2.17882 34.233C2.17882 51.9782 16.5629 66.3634 34.3092 66.3634C52.0556 66.3634 66.4396 51.9782 66.4396 34.233C66.4396 16.4879 52.0556 2.10264 34.3092 2.10264ZM0.751953 34.233C0.751953 15.6999 15.7748 0.675781 34.3092 0.675781C52.8436 0.675781 67.8665 15.6999 67.8665 34.233C67.8665 52.7662 52.8436 67.7903 34.3092 67.7903C15.7748 67.7903 0.751953 52.7662 0.751953 34.233Z" fill="#0081FE"/>
<path d="M34.1539 8.4585C20.0059 8.4585 8.53516 19.9292 8.53516 34.0772C8.53516 48.2252 20.0059 59.6959 34.1539 59.6959C48.3018 59.6959 59.7726 48.2252 59.7726 34.0772C59.7726 19.9292 48.3018 8.4585 34.1539 8.4585Z" fill="#0081FE"/>
<mask id="mask0_2005_1912" style="mask-type:luminance" maskUnits="userSpaceOnUse" x="19" y="18" width="29" height="29">
<path d="M47.8551 18.6655H19.5254V46.9953H47.8551V18.6655Z" fill="white"/>
</mask>
<g mask="url(#mask0_2005_1912)">
<mask id="mask1_2005_1912" style="mask-type:luminance" maskUnits="userSpaceOnUse" x="19" y="18" width="29" height="29">
<path d="M47.8571 18.6655H19.5273V46.9953H47.8571V18.6655Z" fill="white"/>
</mask>
<g mask="url(#mask1_2005_1912)">
<mask id="mask2_2005_1912" style="mask-type:luminance" maskUnits="userSpaceOnUse" x="19" y="18" width="29" height="29">
<path d="M47.859 18.6646H19.5293V46.9943H47.859V18.6646Z" fill="white"/>
</mask>
<g mask="url(#mask2_2005_1912)">
<path d="M39.4129 46.9942C40.6115 46.9942 41.7602 46.5179 42.6101 45.6705C43.4569 44.8231 43.9332 43.6737 43.9332 42.4751V39.3115C43.9332 38.1133 43.4569 36.9636 42.6101 36.1162C41.7602 35.2688 40.6115 34.7925 39.4129 34.7925C38.2143 34.7925 37.0656 35.2688 36.2188 36.1162C35.3689 36.9636 34.8926 38.1133 34.8926 39.3115V42.4751C34.8926 43.6737 35.3689 44.8231 36.2188 45.6705C37.0656 46.5179 38.2143 46.9942 39.4129 46.9942ZM37.6042 39.3115C37.6042 38.8324 37.7972 38.3726 38.1365 38.0336C38.4727 37.6946 38.9335 37.504 39.4129 37.504C39.8923 37.504 40.3531 37.6946 40.6924 38.0336C41.0317 38.3726 41.2217 38.8324 41.2217 39.3115V42.4751C41.2217 42.9546 41.0317 43.4144 40.6924 43.7534C40.3531 44.0924 39.8923 44.2826 39.4129 44.2826C38.9335 44.2826 38.4727 44.0924 38.1365 43.7534C37.7972 43.4144 37.6042 42.9546 37.6042 42.4751V39.3115Z" fill="white"/>
<path d="M27.5446 37.504H27.8434C28.1205 37.5034 28.3945 37.5716 28.6404 37.7027C28.8864 37.8334 29.0949 38.023 29.2475 38.2543C29.3471 38.4025 29.4748 38.5301 29.6242 38.6295C29.7705 38.7288 29.9355 38.7979 30.1129 38.8327C30.2873 38.8679 30.4678 38.8679 30.6422 38.8337C30.8165 38.7991 30.9815 38.7303 31.131 38.6316C31.2804 38.5326 31.408 38.4056 31.5076 38.2578C31.6041 38.1096 31.6758 37.9433 31.71 37.7687C31.7442 37.594 31.7442 37.4138 31.71 37.2391C31.6758 37.0642 31.6073 36.8979 31.5076 36.7494C31.106 36.1455 30.5612 35.6508 29.9199 35.3093C29.2786 34.9678 28.5657 34.7903 27.8403 34.7925H27.5415C26.374 34.795 25.2564 35.2598 24.4314 36.0848C23.6096 36.9097 23.1457 38.028 23.1426 39.1942V42.5972C23.1457 43.7634 23.6096 44.881 24.4345 45.7054C25.2595 46.5294 26.3803 46.993 27.5446 46.9942H27.8434C28.5688 46.9945 29.2817 46.8158 29.9199 46.4734C30.5581 46.1312 31.1029 45.6363 31.5045 45.0329C31.7038 44.7331 31.7754 44.3667 31.7038 44.0137C31.6353 43.6606 31.4267 43.3503 31.1278 43.1507C30.8259 42.9511 30.4616 42.8789 30.1067 42.9496C29.7549 43.0203 29.4436 43.2285 29.2444 43.528C29.0918 43.76 28.8833 43.9505 28.6373 44.0822C28.3914 44.2138 28.1174 44.2829 27.8403 44.2826H27.5415C27.0932 44.2814 26.6636 44.103 26.3491 43.7861C26.0316 43.4692 25.8541 43.0402 25.8541 42.5925V39.1942C25.8541 38.7459 26.0316 38.316 26.3491 37.9991C26.6667 37.6821 27.0963 37.504 27.5446 37.504Z" fill="white"/>
<path d="M20.3667 33.2967C20.5691 33.3951 20.7933 33.4431 21.0205 33.4368C21.2478 33.4306 21.4688 33.3702 21.668 33.2606C21.9109 33.1212 22.1008 32.9079 22.2128 32.6517C22.328 32.3958 22.356 32.1103 22.2938 31.8373C22.163 31.0394 22.2751 30.2203 22.6144 29.4872C22.9631 28.7668 23.5079 28.1603 24.1866 27.7394C24.8684 27.3182 25.6529 27.1 26.453 27.1103H26.565C26.867 27.1097 27.1565 27.0097 27.3931 26.8257C27.6329 26.6414 27.801 26.384 27.8757 26.0935C28.1963 24.8349 28.9279 23.7191 29.9521 22.9221C30.9795 22.1252 32.2403 21.6924 33.5385 21.6924C34.8367 21.6924 36.0975 22.1252 37.1249 22.9221C38.1491 23.7191 38.8807 24.8349 39.2013 26.0935C39.276 26.384 39.4442 26.6414 39.6839 26.8257C39.9205 27.0097 40.21 27.1097 40.512 27.1103H40.6241C41.4241 27.1 42.2087 27.3182 42.8905 27.7394C43.5691 28.1603 44.1139 28.7668 44.4626 29.4872C44.8019 30.2203 44.914 31.0394 44.7832 31.8373C44.721 32.1103 44.749 32.3958 44.8642 32.6517C44.9763 32.9079 45.1662 33.1212 45.409 33.2606C45.6082 33.3702 45.8293 33.4306 46.0565 33.4368C46.2838 33.4431 46.508 33.3951 46.7103 33.2967C46.9033 33.2018 47.0714 33.0626 47.1991 32.8908C47.3267 32.7186 47.4139 32.5188 47.4481 32.3071C47.5135 31.9341 47.5477 31.5562 47.5477 31.1773C47.5415 29.5538 46.9531 27.986 45.8946 26.7566C44.833 25.5269 43.3699 24.7166 41.7635 24.4709L41.5144 24.4348L41.4148 24.1998C40.7611 22.6513 39.6652 21.3295 38.2643 20.4005C36.8634 19.4712 35.2196 18.9756 33.5385 18.9756C31.8574 18.9756 30.2136 19.4712 28.8127 20.4005C27.4118 21.3295 26.316 22.6513 25.6622 24.1998L25.5626 24.4348L25.3135 24.4709C23.7103 24.7166 22.244 25.5269 21.1824 26.7566C20.1239 27.986 19.5355 29.5538 19.5293 31.1773C19.5293 31.5562 19.5635 31.9341 19.6289 32.3071C19.6631 32.5188 19.7503 32.7186 19.878 32.8908C20.0056 33.0626 20.1737 33.2018 20.3667 33.2967Z" fill="white"/>
</g>
</g>
</g>
</g>
<defs>
<clipPath id="clip0_2005_1912">
<rect width="67.5556" height="67.5556" fill="white" transform="translate(0.53125 0.45459)"/>
</clipPath>
</defs>
</svg>
