<svg width="69" height="69" viewBox="0 0 69 69" fill="none" xmlns="http://www.w3.org/2000/svg">
<g clip-path="url(#clip0_2005_1953)">
<path fill-rule="evenodd" clip-rule="evenodd" d="M1.46484 34.6319C1.46484 16.4927 16.1683 1.78809 34.3087 1.78809C52.4491 1.78809 67.1525 16.4927 67.1525 34.6319C67.1525 52.7711 52.4491 67.4757 34.3087 67.4757C16.1683 67.4757 1.46484 52.7711 1.46484 34.6319Z" fill="#0081FE" fill-opacity="0.5"/>
<path fill-rule="evenodd" clip-rule="evenodd" d="M34.3092 2.50206C16.5629 2.50206 2.17882 16.8873 2.17882 34.6325C2.17882 52.3776 16.5629 66.7629 34.3092 66.7629C52.0556 66.7629 66.4396 52.3776 66.4396 34.6325C66.4396 16.8873 52.0556 2.50206 34.3092 2.50206ZM0.751953 34.6325C0.751953 16.0993 15.7748 1.0752 34.3092 1.0752C52.8436 1.0752 67.8665 16.0993 67.8665 34.6325C67.8665 53.1656 52.8436 68.1897 34.3092 68.1897C15.7748 68.1897 0.751953 53.1656 0.751953 34.6325Z" fill="#0081FE"/>
<path d="M34.1539 8.8584C20.0059 8.8584 8.53516 20.3291 8.53516 34.4771C8.53516 48.6251 20.0059 60.0958 34.1539 60.0958C48.3018 60.0958 59.7726 48.6251 59.7726 34.4771C59.7726 20.3291 48.3018 8.8584 34.1539 8.8584Z" fill="#0081FE"/>
<path d="M30.7581 21.5547H23.1433C22.0007 21.5547 21.0762 22.4796 21.0762 23.6218V31.2376C21.0762 32.3801 22.0007 33.3047 23.1433 33.3047H30.7581C31.9007 33.3047 32.8252 32.3801 32.8252 31.2376V23.6218C32.8252 22.4796 31.9007 21.5547 30.7581 21.5547Z" fill="white"/>
<path d="M44.848 21.5547H37.2331C36.0906 21.5547 35.166 22.4796 35.166 23.6218V31.2376C35.166 32.3801 36.0906 33.3047 37.2331 33.3047H44.848C45.9905 33.3047 46.9151 32.3801 46.9151 31.2376V23.6218C46.9151 22.4796 45.9905 21.5547 44.848 21.5547Z" fill="white"/>
<path d="M30.7581 35.6436H23.1433C22.0007 35.6436 21.0762 36.5681 21.0762 37.7107V45.3264C21.0762 46.4689 22.0007 47.3935 23.1433 47.3935H30.7581C31.9007 47.3935 32.8252 46.4689 32.8252 45.3264V37.7107C32.8252 36.5681 31.9007 35.6436 30.7581 35.6436Z" fill="white"/>
<path d="M44.848 35.6436H37.2331C36.0906 35.6436 35.166 36.5681 35.166 37.7107V45.3264C35.166 46.4689 36.0906 47.3935 37.2331 47.3935H44.848C45.9905 47.3935 46.9151 46.4689 46.9151 45.3264V37.7107C46.9151 36.5681 45.9905 35.6436 44.848 35.6436Z" fill="white"/>
</g>
<defs>
<clipPath id="clip0_2005_1953">
<rect width="67.5556" height="67.5556" fill="white" transform="translate(0.53125 0.854492)"/>
</clipPath>
</defs>
</svg>
