<svg width="68" height="69" viewBox="0 0 68 69" fill="none" xmlns="http://www.w3.org/2000/svg">
<g clip-path="url(#clip0_2005_1796)">
<path fill-rule="evenodd" clip-rule="evenodd" d="M1.37891 34.5987C1.37891 16.4595 16.0824 1.75488 34.2227 1.75488C52.3631 1.75488 67.0666 16.4595 67.0666 34.5987C67.0666 52.7379 52.3631 67.4425 34.2227 67.4425C16.0824 67.4425 1.37891 52.7379 1.37891 34.5987Z" fill="#0081FE" fill-opacity="0.5"/>
<path fill-rule="evenodd" clip-rule="evenodd" d="M34.2233 2.46837C16.4769 2.46837 2.09288 16.8536 2.09288 34.5988C2.09288 52.3439 16.4769 66.7292 34.2233 66.7292C51.9696 66.7292 66.3537 52.3439 66.3537 34.5988C66.3537 16.8536 51.9696 2.46837 34.2233 2.46837ZM0.666016 34.5988C0.666016 16.0656 15.6889 1.0415 34.2233 1.0415C52.7577 1.0415 67.7805 16.0656 67.7805 34.5988C67.7805 53.1319 52.7577 68.156 34.2233 68.156C15.6889 68.156 0.666016 53.1319 0.666016 34.5988Z" fill="#0081FE"/>
<path d="M34.0679 8.82422C19.92 8.82422 8.44922 20.295 8.44922 34.4429C8.44922 48.5909 19.92 60.0616 34.0679 60.0616C48.2159 60.0616 59.6866 48.5909 59.6866 34.4429C59.6866 20.295 48.2159 8.82422 34.0679 8.82422Z" fill="#0081FE"/>
<path fill-rule="evenodd" clip-rule="evenodd" d="M32.197 18.7227C29.618 18.7227 27.5273 20.7716 27.5273 23.299V35.5022C25.6392 36.892 24.4141 39.1073 24.4141 41.6044C24.4141 45.8168 27.8986 49.2316 32.197 49.2316C36.4954 49.2316 39.9799 45.8168 39.9799 41.6044C39.9799 39.1073 38.7548 36.892 36.8667 35.5022V23.299C36.8667 20.7716 34.776 18.7227 32.197 18.7227ZM32.197 20.2481C30.4776 20.2481 29.0839 21.614 29.0839 23.299V36.3189C27.2227 37.3739 25.9707 39.3458 25.9707 41.6044C25.9707 44.9742 28.7583 47.7062 32.197 47.7062C35.6357 47.7062 38.4233 44.9742 38.4233 41.6044C38.4233 39.3458 37.1712 37.3739 35.3101 36.3189V23.299C35.3101 21.614 33.9163 20.2481 32.197 20.2481Z" fill="white"/>
<path d="M30.6406 27.875H33.7537V40.0786H30.6406V27.875Z" fill="white"/>
<path d="M36.8668 41.6037C36.8668 44.1311 34.7762 46.1799 32.1972 46.1799C29.6181 46.1799 27.5273 44.1311 27.5273 41.6037C27.5273 39.0762 29.6181 37.0273 32.1972 37.0273C34.7762 37.0273 36.8668 39.0762 36.8668 41.6037Z" fill="white"/>
<path d="M43.0936 24.8247C43.0936 24.4035 42.7451 24.062 42.3153 24.062H38.4238V25.5875H42.3153C42.7451 25.5875 43.0936 25.2459 43.0936 24.8247Z" fill="white"/>
<path d="M41.537 28.6377C41.537 28.2164 41.1886 27.875 40.7588 27.875H38.4238V29.4004H40.7588C41.1886 29.4004 41.537 29.0589 41.537 28.6377Z" fill="white"/>
<path d="M43.0936 32.4507C43.0936 32.0295 42.7451 31.688 42.3153 31.688H38.4238V33.2134H42.3153C42.7451 33.2134 43.0936 32.872 43.0936 32.4507Z" fill="white"/>
</g>
<defs>
<clipPath id="clip0_2005_1796">
<rect width="67.5556" height="67.5556" fill="white" transform="translate(0.447266 0.820801)"/>
</clipPath>
</defs>
</svg>
