<svg width="69" height="69" viewBox="0 0 69 69" fill="none" xmlns="http://www.w3.org/2000/svg">
<g clip-path="url(#clip0_2005_1816)">
<path fill-rule="evenodd" clip-rule="evenodd" d="M1.46484 34.5992C1.46484 16.46 16.1683 1.75537 34.3087 1.75537C52.4491 1.75537 67.1525 16.46 67.1525 34.5992C67.1525 52.7384 52.4491 67.443 34.3087 67.443C16.1683 67.443 1.46484 52.7384 1.46484 34.5992Z" fill="#0081FE" fill-opacity="0.5"/>
<path fill-rule="evenodd" clip-rule="evenodd" d="M34.3092 2.46886C16.5629 2.46886 2.17882 16.8541 2.17882 34.5993C2.17882 52.3444 16.5629 66.7297 34.3092 66.7297C52.0556 66.7297 66.4396 52.3444 66.4396 34.5993C66.4396 16.8541 52.0556 2.46886 34.3092 2.46886ZM0.751953 34.5993C0.751953 16.0661 15.7748 1.04199 34.3092 1.04199C52.8436 1.04199 67.8665 16.0661 67.8665 34.5993C67.8665 53.1324 52.8436 68.1565 34.3092 68.1565C15.7748 68.1565 0.751953 53.1324 0.751953 34.5993Z" fill="#0081FE"/>
<path d="M34.1539 8.82471C20.0059 8.82471 8.53516 20.2955 8.53516 34.4434C8.53516 48.5914 20.0059 60.0621 34.1539 60.0621C48.3018 60.0621 59.7726 48.5914 59.7726 34.4434C59.7726 20.2955 48.3018 8.82471 34.1539 8.82471Z" fill="#0081FE"/>
<mask id="mask0_2005_1816" style="mask-type:luminance" maskUnits="userSpaceOnUse" x="17" y="21" width="33" height="25">
<path d="M49.4097 21.8379H17.9668V45.8092H49.4097V21.8379Z" fill="white"/>
</mask>
<g mask="url(#mask0_2005_1816)">
<mask id="mask1_2005_1816" style="mask-type:luminance" maskUnits="userSpaceOnUse" x="17" y="21" width="33" height="25">
<path d="M49.4097 21.8389H17.9668V45.8102H49.4097V21.8389Z" fill="white"/>
</mask>
<g mask="url(#mask1_2005_1816)">
<mask id="mask2_2005_1816" style="mask-type:luminance" maskUnits="userSpaceOnUse" x="17" y="21" width="33" height="25">
<path d="M49.4097 21.8389H17.9668V45.8102H49.4097V21.8389Z" fill="white"/>
</mask>
<g mask="url(#mask2_2005_1816)">
<path d="M49.4099 39.1929C49.4099 42.8477 46.6616 45.8105 43.2714 45.8105C39.8812 45.8105 37.1328 42.8477 37.1328 39.1929C37.1328 35.9786 39.8463 32.5681 42.29 30.5066C42.8616 30.0245 43.6811 30.0245 44.2527 30.5066C46.6964 32.5681 49.4099 35.9786 49.4099 39.1929Z" fill="white"/>
<path fill-rule="evenodd" clip-rule="evenodd" d="M46.8702 27.2428C45.6737 26.3379 43.5734 25.2353 41.2648 24.9178C39.0031 24.6068 36.6032 25.0481 34.5493 27.1192C31.7926 29.8991 28.5133 30.4684 25.6305 30.072C22.7944 29.6819 20.2846 28.3591 18.8084 27.2428C18.2253 26.8017 18.1037 25.9628 18.5369 25.3691C18.9701 24.7753 19.794 24.6516 20.3772 25.0926C21.5736 25.9974 23.674 27.1001 25.9826 27.4176C28.2443 27.7286 30.6442 27.2872 32.6981 25.2161C35.4547 22.4362 38.7341 21.8669 41.6169 22.2634C44.453 22.6534 46.9628 23.9761 48.439 25.0926C49.0221 25.5337 49.1437 26.3725 48.7105 26.9663C48.2772 27.56 47.4534 27.6839 46.8702 27.2428ZM36.1465 33.0007C36.2844 32.9184 36.4016 32.804 36.4842 32.6647C36.7975 32.1362 37.1384 31.6182 37.4996 31.114C37.9687 30.4595 37.475 29.5601 36.719 29.8132C35.328 30.279 33.9584 31.0878 32.6981 32.3588C30.6442 34.4299 28.2443 34.8713 25.9826 34.5603C23.674 34.2429 21.5736 33.1401 20.3772 32.2352C19.794 31.7942 18.9701 31.9179 18.5369 32.5118C18.1037 33.1054 18.2253 33.9444 18.8084 34.3854C20.2846 35.5018 22.7944 36.8247 25.6305 37.2147C28.5133 37.6111 31.7926 37.0417 34.5493 34.2618C35.0627 33.7442 35.5976 33.3284 36.1465 33.0007ZM34.5006 38.9304C34.5006 38.5513 34.0914 38.2992 33.7949 38.5287C33.4219 38.8176 33.0556 39.141 32.6981 39.5015C30.6442 41.5726 28.2443 42.0139 25.9826 41.7029C23.674 41.3854 21.5736 40.2828 20.3772 39.3779C19.794 38.9368 18.9701 39.0607 18.5369 39.6545C18.1037 40.2482 18.2253 41.087 18.8084 41.528C20.2846 42.6446 22.7944 43.9673 25.6305 44.3573C28.5133 44.7537 31.7926 44.1845 34.5493 41.4046C34.6722 41.2806 34.7263 41.1021 34.6926 40.9293C34.5667 40.2846 34.5006 39.6159 34.5006 38.9304Z" fill="white"/>
</g>
</g>
</g>
</g>
<defs>
<clipPath id="clip0_2005_1816">
<rect width="67.5556" height="67.5556" fill="white" transform="translate(0.53125 0.821289)"/>
</clipPath>
</defs>
</svg>
