<svg width="69" height="69" viewBox="0 0 69 69" fill="none" xmlns="http://www.w3.org/2000/svg">
<g clip-path="url(#clip0_2005_1856)">
<path fill-rule="evenodd" clip-rule="evenodd" d="M1.46484 34.733C1.46484 16.5938 16.1683 1.88916 34.3087 1.88916C52.4491 1.88916 67.1525 16.5938 67.1525 34.733C67.1525 52.8722 52.4491 67.5768 34.3087 67.5768C16.1683 67.5768 1.46484 52.8722 1.46484 34.733Z" fill="#0081FE" fill-opacity="0.5"/>
<path fill-rule="evenodd" clip-rule="evenodd" d="M34.3092 2.60264C16.5629 2.60264 2.17882 16.9879 2.17882 34.733C2.17882 52.4782 16.5629 66.8634 34.3092 66.8634C52.0556 66.8634 66.4396 52.4782 66.4396 34.733C66.4396 16.9879 52.0556 2.60264 34.3092 2.60264ZM0.751953 34.733C0.751953 16.1999 15.7748 1.17578 34.3092 1.17578C52.8436 1.17578 67.8665 16.1999 67.8665 34.733C67.8665 53.2662 52.8436 68.2903 34.3092 68.2903C15.7748 68.2903 0.751953 53.2662 0.751953 34.733Z" fill="#0081FE"/>
<path d="M34.1539 8.9585C20.0059 8.9585 8.53516 20.4292 8.53516 34.5772C8.53516 48.7252 20.0059 60.1959 34.1539 60.1959C48.3018 60.1959 59.7726 48.7252 59.7726 34.5772C59.7726 20.4292 48.3018 8.9585 34.1539 8.9585Z" fill="#0081FE"/>
<path d="M42.4668 42.0708C42.6474 42.4497 42.747 42.8734 42.747 43.321C42.747 43.7684 42.6474 44.1924 42.4668 44.5713H45.664C46.3551 44.5713 46.9155 44.0115 46.9155 43.321C46.9155 42.6305 46.3551 42.0708 45.664 42.0708H42.4668Z" fill="white"/>
<path d="M37.193 42.0708H22.3277C21.6365 42.0708 21.0762 42.6305 21.0762 43.321C21.0762 44.0115 21.6365 44.5713 22.3277 44.5713H37.193C37.0124 44.1924 36.9129 43.7684 36.9129 43.321C36.9129 42.8734 37.0124 42.4497 37.193 42.0708Z" fill="white"/>
<path d="M29.8242 27.0674H45.6639C46.3551 27.0674 46.9154 26.5076 46.9154 25.8171C46.9154 25.1266 46.3551 24.5669 45.6639 24.5669H29.8242C30.0048 24.9458 30.1075 25.3695 30.1075 25.8171C30.1075 26.2645 30.0048 26.6885 29.8242 27.0674Z" fill="white"/>
<path d="M24.5504 24.5669H22.3277C21.6365 24.5669 21.0762 25.1266 21.0762 25.8171C21.0762 26.5076 21.6365 27.0674 22.3277 27.0674H24.5504C24.373 26.6885 24.2703 26.2645 24.2703 25.8171C24.2703 25.3695 24.373 24.9458 24.5504 24.5669Z" fill="white"/>
<path d="M36.913 34.5701C36.913 34.1224 36.8134 33.6987 36.6328 33.3198H45.6641C46.3552 33.3198 46.9156 33.8796 46.9156 34.5701C46.9156 35.2606 46.3552 35.8203 45.6641 35.8203H36.6328C36.8134 35.4414 36.913 35.0174 36.913 34.5701Z" fill="white"/>
<path d="M22.3277 33.3198H31.3589C31.1784 33.6987 31.0787 34.1224 31.0787 34.5701C31.0787 35.0174 31.1784 35.4414 31.3589 35.8203H22.3277C21.6365 35.8203 21.0762 35.2606 21.0762 34.5701C21.0762 33.8796 21.6365 33.3198 22.3277 33.3198Z" fill="white"/>
<path fill-rule="evenodd" clip-rule="evenodd" d="M39.8306 39.1597C37.5269 39.1597 35.6621 41.0248 35.6621 43.3272C35.6621 45.6297 37.5269 47.4948 39.8306 47.4948C42.1312 47.4948 43.9991 45.63 43.9991 43.3272C43.9991 41.0244 42.1312 39.1597 39.8306 39.1597ZM39.8306 44.9944C40.7521 44.9944 41.4962 44.2484 41.4962 43.3272C41.4962 42.4064 40.7521 41.6602 39.8306 41.6602C38.9091 41.6602 38.165 42.4057 38.165 43.3272C38.165 44.2487 38.9091 44.9944 39.8306 44.9944Z" fill="white"/>
<path fill-rule="evenodd" clip-rule="evenodd" d="M33.9947 30.4082C31.6909 30.4082 29.8262 32.2733 29.8262 34.5758C29.8262 36.8783 31.6909 38.7434 33.9947 38.7434C36.2953 38.7434 38.16 36.8786 38.16 34.5758C38.16 32.273 36.2953 30.4082 33.9947 30.4082ZM33.9947 36.2429C34.913 36.2429 35.6602 35.497 35.6602 34.5758C35.6602 33.6549 34.913 32.9087 33.9947 32.9087C33.0732 32.9087 32.326 33.6543 32.326 34.5758C32.326 35.4973 33.0732 36.2429 33.9947 36.2429Z" fill="white"/>
<path fill-rule="evenodd" clip-rule="evenodd" d="M28.1626 29.9909C30.4633 29.9909 32.3311 28.1262 32.3311 25.8234C32.3311 23.5206 30.4633 21.6558 28.1626 21.6558C25.8589 21.6558 23.9941 23.5209 23.9941 25.8234C23.9941 28.1258 25.8589 29.9909 28.1626 29.9909ZM29.8282 25.8234C29.8282 26.7445 29.081 27.4904 28.1626 27.4904C27.2411 27.4904 26.4939 26.7449 26.4939 25.8234C26.4939 24.9019 27.2411 24.1562 28.1626 24.1562C29.081 24.1562 29.8282 24.9025 29.8282 25.8234Z" fill="white"/>
</g>
<defs>
<clipPath id="clip0_2005_1856">
<rect width="67.5556" height="67.5556" fill="white" transform="translate(0.53125 0.955078)"/>
</clipPath>
</defs>
</svg>
