<svg width="68" height="69" viewBox="0 0 68 69" fill="none" xmlns="http://www.w3.org/2000/svg">
<g clip-path="url(#clip0_2005_1842)">
<path fill-rule="evenodd" clip-rule="evenodd" d="M1.37891 34.732C1.37891 16.5928 16.0824 1.88818 34.2227 1.88818C52.3631 1.88818 67.0666 16.5928 67.0666 34.732C67.0666 52.8712 52.3631 67.5758 34.2227 67.5758C16.0824 67.5758 1.37891 52.8712 1.37891 34.732Z" fill="#0081FE" fill-opacity="0.5"/>
<path fill-rule="evenodd" clip-rule="evenodd" d="M34.2233 2.60167C16.4769 2.60167 2.09288 16.9869 2.09288 34.7321C2.09288 52.4772 16.4769 66.8625 34.2233 66.8625C51.9696 66.8625 66.3537 52.4772 66.3537 34.7321C66.3537 16.9869 51.9696 2.60167 34.2233 2.60167ZM0.666016 34.7321C0.666016 16.1989 15.6889 1.1748 34.2233 1.1748C52.7577 1.1748 67.7805 16.1989 67.7805 34.7321C67.7805 53.2652 52.7577 68.2893 34.2233 68.2893C15.6889 68.2893 0.666016 53.2652 0.666016 34.7321Z" fill="#0081FE"/>
<path d="M34.0679 8.95752C19.92 8.95752 8.44922 20.4283 8.44922 34.5762C8.44922 48.7242 19.92 60.1949 34.0679 60.1949C48.2159 60.1949 59.6866 48.7242 59.6866 34.5762C59.6866 20.4283 48.2159 8.95752 34.0679 8.95752Z" fill="#0081FE"/>
<path fill-rule="evenodd" clip-rule="evenodd" d="M33.757 18.542C32.3815 18.542 31.2665 19.657 31.2665 21.0325V22.3403C27.3103 23.4862 24.4178 27.1362 24.4178 31.4617V37.3777C24.4178 37.8754 24.2201 38.3527 23.8682 38.7047L21.6711 40.9018C21.4365 41.1364 21.3047 41.4546 21.3047 41.7864V42.5077C21.3047 43.1986 21.8648 43.7587 22.5557 43.7587H45.2702C45.9612 43.7587 46.5213 43.1986 46.5213 42.5077V41.7864C46.5213 41.4546 46.3895 41.1364 46.1549 40.9018L43.9577 38.7047C43.6058 38.3527 43.4081 37.8754 43.4081 37.3778V31.4617C43.4081 27.0233 40.3628 23.2961 36.2475 22.2557V21.0325C36.2475 19.657 35.1325 18.542 33.757 18.542ZM37.4926 45.7817C37.4926 46.7313 37.1154 47.6419 36.444 48.3133C35.7726 48.9847 34.862 49.3619 33.9125 49.3619C32.9629 49.3619 32.0523 48.9847 31.3809 48.3133C30.7095 47.6419 30.3323 46.7313 30.3323 45.7817H33.9125H37.4926Z" fill="white"/>
</g>
<defs>
<clipPath id="clip0_2005_1842">
<rect width="67.5556" height="67.5556" fill="white" transform="translate(0.447266 0.95459)"/>
</clipPath>
</defs>
</svg>
