<svg width="55" height="55" viewBox="0 0 55 55" fill="none" xmlns="http://www.w3.org/2000/svg">
<g clip-path="url(#clip0_2009_1991)">
<path fill-rule="evenodd" clip-rule="evenodd" d="M0.861328 27.9303C0.861328 13.419 12.6241 1.65527 27.1364 1.65527C41.6487 1.65527 53.4115 13.419 53.4115 27.9303C53.4115 42.4417 41.6487 54.2054 27.1364 54.2054C12.6241 54.2054 0.861328 42.4417 0.861328 27.9303Z" fill="#0081FE" fill-opacity="0.5"/>
<path fill-rule="evenodd" clip-rule="evenodd" d="M27.1349 2.22645C12.9378 2.22645 1.43055 13.7346 1.43055 27.9308C1.43055 42.1269 12.9378 53.6351 27.1349 53.6351C41.3319 53.6351 52.8392 42.1269 52.8392 27.9308C52.8392 13.7346 41.3319 2.22645 27.1349 2.22645ZM0.289062 27.9308C0.289062 13.1042 12.3073 1.08496 27.1349 1.08496C41.9624 1.08496 53.9807 13.1042 53.9807 27.9308C53.9807 42.7573 41.9624 54.7766 27.1349 54.7766C12.3073 54.7766 0.289062 42.7573 0.289062 27.9308Z" fill="#0081FE"/>
<path d="M27.0106 7.31152C15.6922 7.31152 6.51562 16.4881 6.51562 27.8065C6.51562 39.1248 15.6922 48.3015 27.0106 48.3015C38.3289 48.3015 47.5056 39.1248 47.5056 27.8065C47.5056 16.4881 38.3289 7.31152 27.0106 7.31152Z" fill="#0081FE"/>
<mask id="mask0_2009_1991" style="mask-type:luminance" maskUnits="userSpaceOnUse" x="18" y="15" width="17" height="25">
<path d="M34.2303 15.7275H18.7891V39.6366H34.2303V15.7275Z" fill="white"/>
</mask>
<g mask="url(#mask0_2009_1991)">
<mask id="mask1_2009_1991" style="mask-type:luminance" maskUnits="userSpaceOnUse" x="18" y="15" width="17" height="25">
<path d="M34.2284 15.7275H18.7871V39.6366H34.2284V15.7275Z" fill="white"/>
</mask>
<g mask="url(#mask1_2009_1991)">
<mask id="mask2_2009_1991" style="mask-type:luminance" maskUnits="userSpaceOnUse" x="18" y="15" width="17" height="25">
<path d="M34.2264 15.7275H18.7852V39.6366H34.2264V15.7275Z" fill="white"/>
</mask>
<g mask="url(#mask2_2009_1991)">
<path d="M30.795 15.7275V17.4353C30.795 18.8442 29.6369 19.997 28.2215 19.997H24.7901C23.3747 19.997 22.2166 18.8442 22.2166 17.4353V15.7275C20.3207 15.7275 18.7852 17.256 18.7852 19.1431V32.8054C18.7852 33.7447 19.5572 34.5132 20.5009 34.5132H32.5107C33.4543 34.5132 34.2264 33.7447 34.2264 32.8054V19.1431C34.2264 17.256 32.6909 15.7275 30.795 15.7275Z" fill="white"/>
<path d="M24.7895 18.2892H28.2209C28.6927 18.2892 29.0787 17.905 29.0787 17.4353V15.7275H23.9316V17.4353C23.9316 17.905 24.3177 18.2892 24.7895 18.2892Z" fill="white"/>
<path d="M33.3686 36.2211H19.643C19.1712 36.2211 18.7852 35.8368 18.7852 35.3672V36.2211C18.7852 38.1082 20.3207 39.6366 22.2166 39.6366H30.795C32.6909 39.6366 34.2264 38.1082 34.2264 36.2211V35.3672C34.2264 35.8368 33.8404 36.2211 33.3686 36.2211Z" fill="white"/>
</g>
</g>
</g>
</g>
<defs>
<clipPath id="clip0_2009_1991">
<rect width="54.0444" height="54.0444" fill="white" transform="translate(0.111328 0.90918)"/>
</clipPath>
</defs>
</svg>
