<svg width="55" height="55" viewBox="0 0 55 55" fill="none" xmlns="http://www.w3.org/2000/svg">
<g clip-path="url(#clip0_2009_2033)">
<path fill-rule="evenodd" clip-rule="evenodd" d="M0.857422 27.11C0.857422 12.5987 12.6202 0.834961 27.1325 0.834961C41.6448 0.834961 53.4075 12.5987 53.4075 27.11C53.4075 41.6214 41.6448 53.3851 27.1325 53.3851C12.6202 53.3851 0.857422 41.6214 0.857422 27.11Z" fill="#0081FE" fill-opacity="0.5"/>
<path fill-rule="evenodd" clip-rule="evenodd" d="M27.131 1.40516C12.9339 1.40516 1.42665 12.9133 1.42665 27.1095C1.42665 41.3056 12.9339 52.8138 27.131 52.8138C41.328 52.8138 52.8353 41.3056 52.8353 27.1095C52.8353 12.9133 41.328 1.40516 27.131 1.40516ZM0.285156 27.1095C0.285156 12.2829 12.3034 0.263672 27.131 0.263672C41.9585 0.263672 53.9768 12.2829 53.9768 27.1095C53.9768 41.936 41.9585 53.9553 27.131 53.9553C12.3034 53.9553 0.285156 41.936 0.285156 27.1095Z" fill="#0081FE"/>
<path d="M27.0067 6.49023C15.6883 6.49023 6.51172 15.6668 6.51172 26.9852C6.51172 38.3036 15.6883 47.4802 27.0067 47.4802C38.325 47.4802 47.5016 38.3036 47.5016 26.9852C47.5016 15.6668 38.325 6.49023 27.0067 6.49023Z" fill="#0081FE"/>
<path d="M32.4867 17.6455C32.4867 14.5508 29.9778 12.042 26.883 12.042C23.7882 12.042 21.2793 14.5508 21.2793 17.6455V25.8645C21.2793 28.9593 23.7882 31.4681 26.883 31.4681C29.9778 31.4681 32.4867 28.9593 32.4867 25.8645V17.6455Z" fill="white"/>
<path d="M36.4708 25.6958C36.4738 25.5718 36.4517 25.4484 36.4056 25.333C36.3596 25.2176 36.2905 25.1124 36.2025 25.0236C36.1145 24.9348 36.0093 24.8643 35.8932 24.8161C35.777 24.768 35.6523 24.7432 35.5263 24.7432C35.4002 24.7432 35.2755 24.768 35.1594 24.8161C35.0432 24.8643 34.9381 24.9348 34.8501 25.0236C34.7621 25.1124 34.693 25.2176 34.6469 25.333C34.6008 25.4484 34.5787 25.5718 34.5818 25.6958C34.5818 29.9411 31.0719 33.3953 26.758 33.3953C22.4441 33.3953 18.9342 29.9411 18.9342 25.6958C18.9373 25.5718 18.9151 25.4484 18.869 25.333C18.823 25.2176 18.7539 25.1124 18.6659 25.0236C18.5779 24.9348 18.4727 24.8643 18.3566 24.8161C18.2405 24.768 18.1157 24.7432 17.9897 24.7432C17.8637 24.7432 17.7389 24.768 17.6228 24.8161C17.5067 24.8643 17.4015 24.9348 17.3135 25.0236C17.2255 25.1124 17.1564 25.2176 17.1103 25.333C17.0643 25.4484 17.0421 25.5718 17.0452 25.6958C17.0452 30.6526 20.8995 34.7403 25.8132 35.2088V39.0726H22.0353C21.7888 39.0786 21.5545 39.1791 21.3823 39.3528C21.2101 39.5265 21.1137 39.7595 21.1137 40.0021C21.1137 40.2447 21.2101 40.4778 21.3823 40.6514C21.5545 40.8251 21.7888 40.9256 22.0353 40.9316H31.4807C31.7271 40.9256 31.9615 40.8251 32.1337 40.6514C32.3058 40.4778 32.4022 40.2447 32.4022 40.0021C32.4022 39.7595 32.3058 39.5265 32.1337 39.3528C31.9615 39.1791 31.7271 39.0786 31.4807 39.0726H27.7027V35.2083C32.6164 34.7397 36.4708 30.6526 36.4708 25.6958Z" fill="white"/>
</g>
<defs>
<clipPath id="clip0_2009_2033">
<rect width="54.0444" height="54.0444" fill="white" transform="translate(0.111328 0.0869141)"/>
</clipPath>
</defs>
</svg>
