<svg width="55" height="55" viewBox="0 0 55 55" fill="none" xmlns="http://www.w3.org/2000/svg">
<g clip-path="url(#clip0_2009_2045)">
<path fill-rule="evenodd" clip-rule="evenodd" d="M0.861328 27.1979C0.861328 12.6866 12.6241 0.922852 27.1364 0.922852C41.6487 0.922852 53.4115 12.6866 53.4115 27.1979C53.4115 41.7093 41.6487 53.473 27.1364 53.473C12.6241 53.473 0.861328 41.7093 0.861328 27.1979Z" fill="#0081FE" fill-opacity="0.5"/>
<path fill-rule="evenodd" clip-rule="evenodd" d="M27.1349 1.49305C12.9378 1.49305 1.43055 13.0012 1.43055 27.1974C1.43055 41.3935 12.9378 52.9017 27.1349 52.9017C41.3319 52.9017 52.8392 41.3935 52.8392 27.1974C52.8392 13.0012 41.3319 1.49305 27.1349 1.49305ZM0.289062 27.1974C0.289062 12.3708 12.3073 0.351562 27.1349 0.351562C41.9624 0.351562 53.9807 12.3708 53.9807 27.1974C53.9807 42.0239 41.9624 54.0432 27.1349 54.0432C12.3073 54.0432 0.289062 42.0239 0.289062 27.1974Z" fill="#0081FE"/>
<path d="M27.0106 6.57812C15.6922 6.57812 6.51562 15.7547 6.51562 27.0731C6.51562 38.3914 15.6922 47.5681 27.0106 47.5681C38.3289 47.5681 47.5056 38.3914 47.5056 27.0731C47.5056 15.7547 38.3289 6.57812 27.0106 6.57812Z" fill="#0081FE"/>
<path d="M20.4225 26.2702C22.5282 26.8664 24.7038 27.1579 26.8871 27.1365C29.0729 27.1536 31.2508 26.8622 33.3602 26.2702C36.538 25.3433 38.6258 23.7494 38.6258 21.9388C38.6224 21.6426 38.5684 21.3494 38.4665 21.0726C37.5358 18.621 32.7062 16.7412 26.8871 16.7412C21.0681 16.7412 16.2385 18.621 15.3077 21.0726C15.2058 21.3494 15.1519 21.6426 15.1484 21.9388C15.1484 23.7494 17.2446 25.3433 20.4225 26.2702ZM30.2411 20.2063C30.4634 20.2063 30.6767 20.2976 30.8339 20.46C30.9912 20.6225 31.0795 20.8428 31.0795 21.0726V22.8051C31.0795 23.0349 30.9912 23.2552 30.8339 23.4176C30.6767 23.5801 30.4634 23.6714 30.2411 23.6714C30.0186 23.6714 29.8054 23.5801 29.6482 23.4176C29.4909 23.2552 29.4025 23.0349 29.4025 22.8051V21.0726C29.4025 20.8428 29.4909 20.6225 29.6482 20.46C29.8054 20.2976 30.0186 20.2063 30.2411 20.2063ZM26.0486 20.2063C26.0486 19.9766 26.137 19.7562 26.2942 19.5937C26.4515 19.4313 26.6647 19.34 26.8871 19.34C27.1095 19.34 27.3227 19.4313 27.48 19.5937C27.6372 19.7562 27.7256 19.9766 27.7256 20.2063V23.6714C27.7256 23.9011 27.6372 24.1215 27.48 24.2839C27.3227 24.4464 27.1095 24.5377 26.8871 24.5377C26.6647 24.5377 26.4515 24.4464 26.2942 24.2839C26.137 24.1215 26.0486 23.9011 26.0486 23.6714V20.2063ZM22.6947 21.0726C22.6947 20.8428 22.7831 20.6225 22.9403 20.46C23.0976 20.2976 23.3108 20.2063 23.5332 20.2063C23.7556 20.2063 23.9689 20.2976 24.1261 20.46C24.2834 20.6225 24.3717 20.8428 24.3717 21.0726V22.8051C24.3717 23.0349 24.2834 23.2552 24.1261 23.4176C23.9689 23.5801 23.7556 23.6714 23.5332 23.6714C23.3108 23.6714 23.0976 23.5801 22.9403 23.4176C22.7831 23.2552 22.6947 23.0349 22.6947 22.8051V21.0726Z" fill="white"/>
<path d="M38.6244 24.2081C37.677 25.4036 35.9497 26.4084 33.5936 27.1015C31.4064 27.7054 29.1495 27.997 26.8858 27.9677C24.6218 28.0019 22.3642 27.7103 20.178 27.1015C17.805 26.4084 16.0694 25.3689 15.1471 24.1908C14.6192 23.5657 14.3222 22.7679 14.3086 21.9385V30.6012C14.3086 34.0663 19.7168 36.6651 26.8858 36.6651C34.0547 36.6651 39.463 34.0663 39.463 30.6012V21.9385C39.4468 22.7726 39.1504 23.575 38.6244 24.2081ZM29.4012 32.3337H24.3703C24.1479 32.3337 23.9347 32.2425 23.7774 32.08C23.6202 31.9175 23.5318 31.6972 23.5318 31.4675C23.5318 31.2377 23.6202 31.0174 23.7774 30.8549C23.9347 30.6925 24.1479 30.6012 24.3703 30.6012H29.4012C29.6236 30.6012 29.8368 30.6925 29.9941 30.8549C30.1513 31.0174 30.2397 31.2377 30.2397 31.4675C30.2397 31.6972 30.1513 31.9175 29.9941 32.08C29.8368 32.2425 29.6236 32.3337 29.4012 32.3337Z" fill="white"/>
</g>
<defs>
<clipPath id="clip0_2009_2045">
<rect width="54.0444" height="54.0444" fill="white" transform="translate(0.111328 0.175781)"/>
</clipPath>
</defs>
</svg>
