<svg width="64" height="71" viewBox="0 0 64 71" fill="none" xmlns="http://www.w3.org/2000/svg">
<g clip-path="url(#clip0_2009_2059)">
<path d="M56.5656 0.305664H6.86474C3.136 0.305664 0.113281 3.32974 0.113281 7.06012V63.8089C0.113281 67.5394 3.136 70.5634 6.86474 70.5634H56.5656C60.2943 70.5634 63.3171 67.5394 63.3171 63.8089V7.06012C63.3171 3.32974 60.2943 0.305664 56.5656 0.305664Z" fill="white"/>
<path d="M5.73171 19.9785H52.0796C55.5687 19.9785 58.4014 22.8112 58.4014 26.3003V45.9741C58.4014 46.3617 58.0866 46.6765 57.699 46.6765H11.3511C7.862 46.6765 5.0293 43.8438 5.0293 40.3547V20.6809C5.0293 20.2933 5.34404 19.9785 5.73171 19.9785Z" fill="#E94D1A"/>
<path d="M45.8565 38.9449C46.5485 38.9449 47.1292 38.3837 47.1534 37.6913C47.1776 36.9989 46.6362 36.4376 45.9441 36.4376L45.9438 36.4371C44.5797 36.4371 43.5127 35.3313 43.5596 33.967C43.5596 33.9661 43.5598 33.9651 43.5597 33.9642C43.5598 33.9633 43.56 33.9623 43.56 33.9614C43.6083 32.597 44.7525 31.4913 46.1164 31.4913C47.4807 31.4913 48.548 32.5978 48.5004 33.9627C48.5004 33.964 48.5001 33.9654 48.5 33.9668L48.377 37.477C48.3527 38.1694 48.8942 38.7307 49.5862 38.7307C50.2784 38.7307 50.859 38.1694 50.8831 37.477L51.0058 33.967H51.0069C51.0069 33.9656 51.0071 33.9641 51.0071 33.9627C51.1032 31.2128 48.9527 28.9834 46.204 28.9834C43.4552 28.9834 41.15 31.2672 41.0539 34.0172V34.0182C41.0539 34.0192 41.0539 34.0197 41.0539 34.0197C40.9578 36.7702 43.1078 38.9449 45.8565 38.9449Z" fill="white"/>
<path d="M38.6758 29.2764C37.9837 29.2764 37.3933 29.8377 37.357 30.53L37.1619 34.2543H37.1613C37.1612 34.2558 37.1613 34.2572 37.1612 34.2586C37.0897 35.6236 36.37 36.7301 35.0057 36.7301C33.6413 36.7301 33.0375 35.6236 33.1091 34.2586C33.1092 34.2572 33.1094 34.2558 33.1095 34.2543H33.1088L33.3039 30.53C33.3402 29.8377 32.8085 29.2764 32.1165 29.2764C31.4244 29.2764 30.8339 29.8377 30.7977 30.53L30.6026 34.2547C30.6025 34.256 30.6025 34.2573 30.6024 34.2586C30.4583 37.0086 32.1256 39.2379 34.8743 39.2379C35.7736 39.2379 36.3536 39.0146 36.9131 38.4923L36.9129 38.4953L36.9124 38.4959C36.8409 39.8608 35.6446 40.4963 34.2802 40.4963L34.276 40.4961L34.2759 40.4969C33.5868 40.5006 33.0003 41.0604 32.9641 41.7505C32.928 42.441 33.4566 43.0011 34.146 43.0041L34.1479 43.0041H34.1516C36.8992 43.0027 39.2973 41.3346 39.4413 38.5856L39.8633 30.53C39.8995 29.8377 39.3679 29.2764 38.6758 29.2764Z" fill="white"/>
<path d="M28.1238 29.2764C27.4317 29.2764 26.8511 29.8377 26.8269 30.53L26.6968 34.2543H26.6961C26.696 34.2558 26.6962 34.2572 26.6961 34.2586C26.6485 35.6236 25.9481 36.7301 24.5837 36.7301C23.2194 36.7301 22.5963 35.6236 22.644 34.2586C22.6441 34.2572 22.6443 34.2558 22.6443 34.2543H22.6437L22.7738 30.53C22.7979 29.8377 22.2566 29.2764 21.5645 29.2764C20.8724 29.2764 20.2918 29.8377 20.2675 30.53L20.1374 34.2547C20.1374 34.256 20.1373 34.2573 20.1373 34.2586C20.0412 37.0086 21.4719 39.2379 24.6051 39.2379C27.7192 39.2379 29.1068 37.0086 29.2029 34.2586V34.2547L29.3331 30.53C29.3573 29.8377 28.8159 29.2764 28.1238 29.2764Z" fill="white"/>
<path d="M11.7898 27.5661C11.814 26.8738 12.3947 26.3125 13.0868 26.3125C13.7788 26.3125 14.3202 26.8738 14.296 27.5661L14.242 29.188H17.7322C18.4243 29.188 18.9657 29.7493 18.9416 30.4416C18.9173 31.134 18.3367 31.6953 17.6446 31.6953H14.1524L14.0567 34.3087L14.0572 34.3093C14.0094 35.6742 15.0224 36.7808 16.3867 36.7808L16.3895 36.7805L16.391 36.7812H17.7379C18.43 36.7812 18.9714 37.3425 18.9472 38.035C18.9231 38.7273 18.3423 39.2886 17.6503 39.2886H16.2991C13.5503 39.2886 11.4543 37.0593 11.5505 34.3093V34.3087L11.6462 31.6953H10.4092C9.7172 31.6953 9.17574 31.134 9.2 30.4416C9.22416 29.7493 9.80478 29.188 10.4969 29.188H11.7357L11.7898 27.5661Z" fill="white"/>
<path d="M51.8859 26.6481C51.1045 26.0708 50.0708 25.9658 49.1884 26.3743L49.1142 26.4096L49.1163 26.4137C48.7574 26.6284 48.6102 27.0867 48.7889 27.4739C48.9807 27.8891 49.4749 28.0716 49.8896 27.8795L49.9124 27.8689C50.2386 27.7295 50.6146 27.7722 50.9003 27.9834C51.1853 28.1939 51.338 28.5442 51.2997 28.8976L51.3789 28.9064L51.2963 28.9266C51.2532 29.3732 51.5679 29.7697 52.0125 29.829C52.0503 29.8341 52.0877 29.8366 52.1248 29.8366C52.5226 29.8366 52.87 29.5516 52.9414 29.1402L52.9445 29.1152C53.0624 28.1628 52.6567 27.2175 51.8859 26.6481Z" fill="white"/>
<path d="M53.7017 24.0072C52.1242 22.8545 50.0443 22.6538 48.2663 23.4853C47.8522 23.6798 47.6732 24.175 47.8675 24.5895C47.9617 24.7904 48.1285 24.9424 48.3368 25.0178C48.5461 25.0933 48.7709 25.0826 48.9735 24.9875C50.1972 24.4142 51.6343 24.552 52.7232 25.3477C53.813 26.1441 54.3818 27.4721 54.2075 28.8137C54.1794 29.0329 54.239 29.2505 54.3756 29.4266C54.5118 29.6022 54.7077 29.7145 54.9268 29.7426C54.9624 29.7471 54.9979 29.7493 55.0329 29.7493C55.442 29.7493 55.7987 29.4443 55.8527 29.0279C56.1055 27.085 55.2814 25.1611 53.7017 24.0072Z" fill="white"/>
<path d="M11.3491 50.1885H57.697C58.0847 50.1885 58.3994 50.5032 58.3994 50.8909V57.2157C58.3994 60.7048 55.5667 63.5375 52.0776 63.5375H5.72975C5.34208 63.5375 5.02734 63.2227 5.02734 62.835V56.5103C5.02734 53.0212 7.86004 50.1885 11.3491 50.1885Z" fill="#EE761D"/>
<g opacity="0.8">
<mask id="mask0_2009_2059" style="mask-type:luminance" maskUnits="userSpaceOnUse" x="5" y="50" width="54" height="14">
<path d="M11.3491 50.2021H57.697C58.0847 50.2021 58.3994 50.5169 58.3994 50.9046V57.2293C58.3994 60.7184 55.5667 63.5511 52.0776 63.5511H5.72975C5.34208 63.5511 5.02734 63.2364 5.02734 62.8487V56.5239C5.02734 53.0349 7.86004 50.2021 11.3491 50.2021Z" fill="white"/>
</mask>
<g mask="url(#mask0_2009_2059)">
<path d="M58.3994 55.4014H5.02734V63.5513H58.3994V55.4014Z" fill="url(#paint0_linear_2009_2059)"/>
<path d="M58.4628 50.2021H5.02734V55.4012H58.4628V50.2021Z" fill="url(#paint1_linear_2009_2059)"/>
</g>
</g>
<path d="M8.34671 15.256L6.04102 8.14355H7.39617L9.10521 13.6169H8.65009L10.3288 8.14355H11.3501L13.0288 13.6169H12.5637L14.2827 8.14355H15.6379L13.3221 15.256H12.3008L10.6119 9.79272H11.0569L9.37817 15.256H8.34671Z" fill="#010100"/>
<path d="M18.0644 15.3598C17.5723 15.3598 17.1291 15.247 16.7346 15.0209C16.3403 14.795 16.0267 14.4882 15.7942 14.1003C15.5616 13.7125 15.4453 13.2792 15.4453 12.8002C15.4453 12.3214 15.5599 11.8914 15.7892 11.5103C16.0183 11.1292 16.3318 10.8259 16.7295 10.5997C17.1273 10.3738 17.569 10.2607 18.0544 10.2607C18.5532 10.2607 18.9998 10.3738 19.3943 10.5997C19.7887 10.8259 20.1004 11.1292 20.3298 11.5103C20.5588 11.8914 20.6735 12.3214 20.6735 12.8002C20.6735 13.2792 20.5588 13.7125 20.3298 14.1003C20.1004 14.4882 19.7887 14.795 19.3943 15.0209C18.9998 15.247 18.5565 15.3598 18.0644 15.3598ZM18.0544 14.1255C18.3038 14.1255 18.5246 14.0699 18.7167 13.9586C18.9089 13.8473 19.057 13.6923 19.1617 13.4932C19.2661 13.2944 19.3185 13.0667 19.3185 12.8103C19.3185 12.554 19.2644 12.3282 19.1566 12.1325C19.0487 11.9369 18.9004 11.7834 18.7117 11.6721C18.5228 11.5608 18.3038 11.5052 18.0544 11.5052C17.8116 11.5052 17.5959 11.5608 17.4071 11.6721C17.2184 11.7834 17.07 11.9369 16.9622 12.1325C16.8542 12.3282 16.8004 12.554 16.8004 12.8103C16.8004 13.0667 16.8542 13.2944 16.9622 13.4932C17.07 13.6923 17.2184 13.8473 17.4071 13.9586C17.5959 14.0699 17.8116 14.1255 18.0544 14.1255Z" fill="#010100"/>
<path d="M21.5215 15.2583V10.3716H22.8463V15.2583H21.5215ZM22.8463 12.5571L22.3304 12.2131C22.3912 11.6129 22.5664 11.139 22.8563 10.7915C23.1462 10.4443 23.5642 10.2705 24.1104 10.2705C24.3463 10.2705 24.5586 10.3094 24.7474 10.3869C24.9361 10.4646 25.108 10.5909 25.2632 10.7663L24.4339 11.7173C24.3596 11.6363 24.2705 11.5757 24.1659 11.5351C24.0613 11.4947 23.9417 11.4745 23.807 11.4745C23.5237 11.4745 23.2928 11.564 23.1142 11.7426C22.9354 11.9213 22.8463 12.1927 22.8463 12.5571Z" fill="#010100"/>
<path d="M25.7305 15.258V7.94336H27.0553V15.258H25.7305ZM28.8451 15.258L26.9541 12.7389L28.8351 10.3713H30.3621L28.1575 13.0424L28.2082 12.3948L30.4632 15.258H28.8451Z" fill="#010100"/>
<path d="M32.4655 15.3692C32.1889 15.3692 31.9176 15.332 31.6514 15.2579C31.385 15.1838 31.1408 15.0809 30.9183 14.9493C30.6958 14.8178 30.5036 14.6577 30.3418 14.4687L31.1306 13.6695C31.299 13.8584 31.4946 14.0001 31.7171 14.0944C31.9396 14.1889 32.1857 14.236 32.4553 14.236C32.6711 14.236 32.8346 14.2057 32.9458 14.145C33.057 14.0844 33.1127 13.9933 33.1127 13.8719C33.1127 13.7371 33.0536 13.6325 32.9357 13.5583C32.8177 13.4841 32.6642 13.4216 32.4756 13.3711C32.2867 13.3205 32.0895 13.2632 31.884 13.199C31.6783 13.1351 31.4811 13.0508 31.2925 12.9461C31.1036 12.8417 30.9501 12.6967 30.8323 12.5111C30.7142 12.3257 30.6553 12.0847 30.6553 11.7877C30.6553 11.4776 30.7312 11.2078 30.8829 10.9784C31.0346 10.7492 31.252 10.5704 31.5351 10.4421C31.8182 10.314 32.152 10.25 32.5362 10.25C32.9407 10.25 33.3064 10.3208 33.6335 10.4624C33.9604 10.6041 34.2317 10.8165 34.4476 11.0998L33.6486 11.899C33.5003 11.7169 33.3334 11.5855 33.1481 11.5045C32.9625 11.4235 32.762 11.383 32.5464 11.383C32.3508 11.383 32.2007 11.4133 32.0964 11.4742C31.9917 11.5348 31.9396 11.6192 31.9396 11.727C31.9396 11.8485 31.9986 11.943 32.1165 12.0103C32.2345 12.0778 32.3878 12.1368 32.5767 12.1874C32.7654 12.2379 32.9625 12.2953 33.1683 12.3594C33.3739 12.4236 33.5693 12.5129 33.7548 12.6275C33.9402 12.7422 34.0919 12.894 34.2099 13.0827C34.3278 13.2716 34.3868 13.5145 34.3868 13.8112C34.3868 14.2901 34.2149 14.6695 33.8711 14.9493C33.5274 15.2292 33.0587 15.3692 32.4655 15.3692Z" fill="#010100"/>
<path d="M38.5531 15.2578L36.7227 10.3711H38.0575L39.2508 13.9223L38.8463 13.9325L40.0699 10.3711H41.0306L42.2543 13.9325L41.8497 13.9223L43.043 10.3711H44.3779L42.5576 15.2578H41.597L40.3632 11.8786H40.7373L39.5037 15.2578H38.5531Z" fill="#010100"/>
<path d="M45.6097 9.58213C45.3939 9.58213 45.2153 9.50967 45.0738 9.36448C44.9321 9.21956 44.8613 9.03926 44.8613 8.82329C44.8613 8.61427 44.9321 8.43549 45.0738 8.28702C45.2153 8.13883 45.3939 8.06445 45.6097 8.06445C45.8321 8.06445 46.0125 8.13883 46.1507 8.28702C46.2889 8.43549 46.358 8.61427 46.358 8.82329C46.358 9.03926 46.2889 9.21956 46.1507 9.36448C46.0125 9.50967 45.8321 9.58213 45.6097 9.58213ZM44.9423 15.2578V10.3711H46.2771V15.2578H44.9423Z" fill="#010100"/>
<path d="M47.0254 11.5358V10.3723H50.6356V11.5358H47.0254ZM48.1681 15.259V8.33887H49.4928V15.259H48.1681Z" fill="#010100"/>
<path d="M51.3828 15.258V7.94336H52.7077V15.258H51.3828ZM54.6695 15.258V12.4555C54.6695 12.1657 54.5784 11.9294 54.3964 11.7473C54.2144 11.5652 53.9783 11.4742 53.6885 11.4742C53.4998 11.4742 53.3311 11.5147 53.1829 11.5955C53.0345 11.6765 52.9182 11.7913 52.834 11.9395C52.7497 12.088 52.7077 12.26 52.7077 12.4555L52.1918 12.1925C52.1918 11.8081 52.2727 11.4726 52.4346 11.1858C52.5964 10.8993 52.8204 10.6749 53.1071 10.5131C53.3935 10.3512 53.7223 10.2702 54.093 10.2702C54.4638 10.2702 54.7924 10.3512 55.0791 10.5131C55.3654 10.6749 55.5897 10.8975 55.7515 11.1809C55.9133 11.4641 55.9942 11.7913 55.9942 12.1621V15.258H54.6695Z" fill="#010100"/>
</g>
<defs>
<linearGradient id="paint0_linear_2009_2059" x1="4.65804" y1="59.5879" x2="58.4538" y2="59.366" gradientUnits="userSpaceOnUse">
<stop stop-color="#EF9E3C"/>
<stop offset="1" stop-color="#DC2261" stop-opacity="0.7"/>
</linearGradient>
<linearGradient id="paint1_linear_2009_2059" x1="17.0864" y1="38.143" x2="46.4037" y2="67.4603" gradientUnits="userSpaceOnUse">
<stop stop-color="#F5DE45" stop-opacity="0.8"/>
<stop offset="1" stop-color="#EC6544"/>
</linearGradient>
<clipPath id="clip0_2009_2059">
<rect width="63.2038" height="70.2578" fill="white" transform="translate(0.111328 0.308594)"/>
</clipPath>
</defs>
</svg>
