<svg width="257" height="104" viewBox="0 0 257 104" fill="none" xmlns="http://www.w3.org/2000/svg">
<g clip-path="url(#clip0_662_9858)">
<path d="M255.216 79.1958V24.8058C255.216 11.928 244.734 1.45117 231.856 1.45117H25.4596C12.5818 1.45117 2.10498 11.928 2.10498 24.8058V79.1958C2.10498 92.0722 12.5818 102.549 25.4596 102.549H231.856C244.734 102.549 255.216 92.0722 255.216 79.1958Z" fill="white"/>
<path d="M231.856 1.45037C244.735 1.45037 255.216 11.9272 255.216 24.805V79.195C255.216 92.0714 244.735 102.547 231.856 102.547H25.4593C12.5814 102.547 2.10465 92.0714 2.10465 79.195V24.805C2.10465 11.9272 12.5814 1.45037 25.4593 1.45037H231.856ZM231.856 0H25.4593C11.7811 0 0.652832 11.1268 0.652832 24.805V79.195C0.652832 92.8717 11.7811 104 25.4593 104H231.856C245.535 104 256.667 92.8717 256.667 79.195V24.805C256.667 11.1268 245.535 0 231.856 0Z" fill="#B1B0B2"/>
<path d="M231.856 1.45037C244.735 1.45037 255.216 11.9272 255.216 24.805V79.195C255.216 92.0714 244.735 102.547 231.856 102.547H25.4593C12.5814 102.547 2.10465 92.0714 2.10465 79.195V24.805C2.10465 11.9272 12.5814 1.45037 25.4593 1.45037H231.856ZM231.856 0H25.4593C11.7811 0 0.652832 11.1268 0.652832 24.805V79.195C0.652832 92.8717 11.7811 104 25.4593 104H231.856C245.535 104 256.667 92.8717 256.667 79.195V24.805C256.667 11.1268 245.535 0 231.856 0Z" fill="white"/>
<path d="M120.01 36.1917L117.715 26.8778L115.443 36.1917H113.047L109.656 23.8047H111.837L114.281 33.8305L116.588 24.1452H118.914L121.244 33.8142L123.688 23.8047H125.868L122.405 36.1917H120.01Z" fill="#2B2523"/>
<path d="M128.208 30.0059C128.208 28.6941 128.441 27.5518 128.907 26.5745C129.37 25.5973 130.049 24.8427 130.944 24.312C131.837 23.7829 132.898 23.5176 134.126 23.5176C135.315 23.5176 136.356 23.7741 137.245 24.2855C138.132 24.797 138.819 25.5428 139.308 26.52C139.796 27.4972 140.041 28.6587 140.041 30.0059C140.041 31.3162 139.809 32.46 139.345 33.4372C138.879 34.4159 138.201 35.1677 137.305 35.6983C136.412 36.2274 135.352 36.4942 134.126 36.4942C132.934 36.4942 131.893 36.2377 131.007 35.7248C130.118 35.2133 129.43 34.4675 128.941 33.4903C128.453 32.5145 128.208 31.3531 128.208 30.0059ZM130.425 30.0059C130.425 31.5314 130.74 32.69 131.371 33.4815C132.003 34.2744 132.922 34.6709 134.126 34.6709C135.329 34.6709 136.245 34.2744 136.878 33.4815C137.51 32.69 137.824 31.5314 137.824 30.0059C137.824 28.4804 137.51 27.3204 136.878 26.5288C136.245 25.7374 135.329 25.3408 134.126 25.3408C132.922 25.3408 132.003 25.7374 131.371 26.5288C130.74 27.3204 130.425 28.4804 130.425 30.0059Z" fill="#2B2523"/>
<path d="M143.868 36.1917V23.8047H148.498C149.711 23.8047 150.687 24.1363 151.419 24.7981C152.15 25.4584 152.517 26.3487 152.517 27.4689C152.517 28.2796 152.311 28.9767 151.9 29.5604C151.491 30.1441 150.893 30.5907 150.104 30.9017L153.306 36.1917H151.124L148.228 31.2775H146.048V36.1917H143.868ZM146.048 29.5958H148.218C149.606 29.5958 150.3 28.9119 150.3 27.5397C150.3 26.1703 149.624 25.4864 148.269 25.4864H146.048V29.5958Z" fill="#2B2523"/>
<path d="M156.415 36.1917V23.8047H158.595V29.2568L163.44 23.8047H165.941L160.667 29.64L166.494 36.1917H163.777L158.595 30.2944V36.1917H156.415Z" fill="#2B2523"/>
<path d="M171.71 30.4879C170.722 30.1091 170.006 29.6522 169.559 29.12C169.114 28.5909 168.89 27.9247 168.89 27.1273C168.89 26.0203 169.279 25.1404 170.063 24.4904C170.842 23.8418 171.894 23.5176 173.215 23.5176C174.311 23.5176 175.427 23.7313 176.561 24.1617V25.8951C175.421 25.5369 174.382 25.3585 173.446 25.3585C171.888 25.3585 171.107 25.8892 171.107 26.9489C171.107 27.3542 171.249 27.6874 171.532 27.9483C171.811 28.2136 172.31 28.4745 173.029 28.7368L174.524 29.291C175.511 29.6595 176.225 30.1091 176.667 30.6323C177.106 31.1556 177.329 31.8218 177.329 32.6324C177.329 33.8382 176.904 34.7815 176.056 35.4668C175.21 36.1508 174.05 36.4942 172.572 36.4942C171.943 36.4942 171.31 36.4293 170.678 36.307C170.046 36.1802 169.493 36.0049 169.014 35.7793V34.0445C169.592 34.2346 170.192 34.385 170.82 34.4911C171.449 34.5987 172.018 34.6518 172.52 34.6518C173.356 34.6518 173.996 34.5014 174.443 34.1963C174.889 33.8942 175.112 33.4549 175.112 32.883C175.112 32.4777 174.975 32.1446 174.705 31.8822C174.435 31.6213 173.959 31.359 173.277 31.0951L171.71 30.4879Z" fill="#2B2523"/>
<path d="M196.386 36.1917L194.093 26.8778L191.818 36.1917H189.423L186.032 23.8047H188.213L190.656 33.8305L192.965 24.1452H195.29L197.618 33.8142L200.064 23.8047H202.244L198.781 36.1917H196.386Z" fill="#2B2523"/>
<path d="M207.658 23.8047H205.478V36.1917H207.658V23.8047Z" fill="#2B2523"/>
<path d="M214.752 36.1917V25.5926H210.872V23.8047H220.81V25.5926H216.932V36.1917H214.752Z" fill="#2B2523"/>
<path d="M231.82 36.1917V30.7573H226.136V36.1917H223.958V23.8047H226.136V29.0062H231.82V23.8047H234V36.1917H231.82Z" fill="#2B2523"/>
<path d="M119.22 55.0664C124.72 55.0664 127.469 57.4365 127.469 62.1708V79.0489C127.469 79.525 127.23 79.7638 126.754 79.7638H125.753C125.277 79.7638 125.02 79.525 124.989 79.0489L124.799 76.9987C122.065 79.1905 119.206 80.2885 116.216 80.2885C114.023 80.2885 112.282 79.6621 110.996 78.4048C109.709 77.149 109.066 75.4732 109.066 73.3757C109.066 71.0543 109.853 69.2281 111.425 67.8941C113 66.5573 115.17 65.8896 117.934 65.8896C118.951 65.8896 120.063 65.9869 121.271 66.1755C122.478 66.3656 123.638 66.6369 124.752 66.9862V62.9815C124.752 61.0432 124.291 59.6533 123.368 58.8117C122.445 57.9686 120.921 57.547 118.791 57.547C116.821 57.547 114.74 57.8654 112.546 58.5007C112.197 58.5965 111.918 58.6835 111.714 58.7631C111.504 58.8426 111.338 58.8809 111.212 58.8809C110.829 58.8809 110.639 58.6761 110.639 58.2634V57.4999C110.639 57.0223 110.845 56.7054 111.26 56.5462C112.467 56.0687 113.762 55.7046 115.145 55.4496C116.527 55.1946 117.885 55.0664 119.22 55.0664ZM118.553 68.1786C114.103 68.1786 111.879 69.8943 111.879 73.3256C111.879 76.3162 113.453 77.8093 116.598 77.8093C117.805 77.8093 119.11 77.5706 120.509 77.0945C121.906 76.6169 123.321 75.9198 124.752 74.9971V69.0364C122.59 68.4631 120.523 68.1786 118.553 68.1786Z" fill="#2B2523"/>
<path d="M133.763 45.2017C133.763 44.7256 134 44.4883 134.478 44.4883H135.764C136.24 44.4883 136.481 44.7256 136.481 45.2017V75.6209C136.481 76.3196 136.615 76.8119 136.886 77.0993C137.154 77.3838 137.639 77.5282 138.339 77.5282C138.529 77.5282 138.746 77.5135 138.983 77.481C139.222 77.4486 139.42 77.4309 139.579 77.4309C140.024 77.4309 140.247 77.655 140.247 78.0986V79.0051C140.247 79.3869 140.04 79.6257 139.628 79.72C139.436 79.7848 139.157 79.832 138.792 79.8629C138.426 79.8939 138.101 79.9116 137.815 79.9116C136.544 79.9116 135.549 79.5357 134.834 78.7899C134.119 78.0441 133.763 77.002 133.763 75.6681V45.2017Z" fill="#2B2523"/>
<path d="M159.727 77.1908C160.138 77.064 160.442 76.9594 160.632 76.8812C160.824 76.8017 160.996 76.7618 161.158 76.7618C161.537 76.7618 161.729 76.9697 161.729 77.3809V78.0486C161.729 78.5571 161.555 78.8917 161.205 79.0509C158.916 80.0031 156.484 80.4806 153.909 80.4806C150.255 80.4806 147.465 79.4238 145.542 77.3102C143.62 75.1965 142.657 72.1057 142.657 68.0361C142.657 66.0345 142.914 64.2304 143.419 62.6252C143.929 61.0216 144.666 59.6538 145.638 58.5262C146.607 57.3972 147.791 56.5393 149.188 55.9513C150.587 55.3631 152.163 55.0684 153.909 55.0684C156.674 55.0684 158.812 55.7051 160.323 56.9757C161.832 58.2476 162.586 60.0267 162.586 62.3157C162.586 64.5723 161.785 66.2335 160.178 67.2992C158.574 68.3633 156.088 68.8969 152.717 68.8969C151.51 68.8969 150.292 68.8247 149.07 68.6802C147.847 68.5373 146.63 68.2911 145.422 67.9418C145.422 71.3731 146.146 73.9098 147.592 75.5473C149.038 77.1834 151.208 78.0014 154.101 78.0014C155.976 78.0014 157.851 77.7302 159.727 77.1908ZM153.672 57.5004C151.287 57.5004 149.405 58.199 148.021 59.5978C146.637 60.9966 145.804 63.0468 145.52 65.7471C146.759 66.0669 147.988 66.3057 149.213 66.4634C150.437 66.6226 151.669 66.7022 152.909 66.7022C155.292 66.7022 157.04 66.3529 158.153 65.6528C159.266 64.9541 159.821 63.8398 159.821 62.3157C159.821 59.1055 157.771 57.5004 153.672 57.5004Z" fill="#2B2523"/>
<path d="M175.691 69.1838L168.775 79.2435C168.523 79.5928 168.187 79.7667 167.776 79.7667H166.442C166.028 79.7667 165.82 79.5928 165.82 79.2435C165.82 79.1167 165.932 78.9088 166.154 78.6229L174.307 67.2765L166.868 56.8822C166.681 56.5978 166.583 56.4061 166.583 56.3103C166.583 55.961 166.79 55.7871 167.204 55.7871H168.681C169.095 55.7871 169.428 55.961 169.683 56.3103L175.928 65.179L182.175 56.3103C182.428 55.961 182.745 55.7871 183.127 55.7871H184.414C184.828 55.7871 185.034 55.961 185.034 56.3103C185.034 56.4386 184.94 56.6449 184.748 56.9294L177.407 67.0863L185.559 78.6229C185.751 78.9088 185.845 79.1167 185.845 79.2435C185.845 79.5928 185.639 79.7667 185.224 79.7667H183.747C183.366 79.7667 183.047 79.5928 182.795 79.2435L175.691 69.1838Z" fill="#2B2523"/>
<path d="M198.848 55.0664C204.346 55.0664 207.095 57.4365 207.095 62.1708V79.0489C207.095 79.525 206.857 79.7638 206.381 79.7638H205.379C204.901 79.7638 204.648 79.525 204.615 79.0489L204.425 76.9987C201.692 79.1905 198.83 80.2885 195.842 80.2885C193.649 80.2885 191.91 79.6621 190.623 78.4048C189.334 77.149 188.692 75.4732 188.692 73.3757C188.692 71.0543 189.478 69.2281 191.052 67.8941C192.625 66.5573 194.794 65.8896 197.56 65.8896C198.575 65.8896 199.688 65.9869 200.897 66.1755C202.104 66.3656 203.264 66.6369 204.378 66.9862V62.9815C204.378 61.0432 203.917 59.6533 202.994 58.8117C202.071 57.9686 200.547 57.547 198.417 57.547C196.448 57.547 194.366 57.8654 192.174 58.5007C191.823 58.5965 191.543 58.6835 191.338 58.7631C191.129 58.8426 190.964 58.8809 190.837 58.8809C190.455 58.8809 190.264 58.6761 190.264 58.2634V57.4999C190.264 57.0223 190.471 56.7054 190.886 56.5462C192.091 56.0687 193.388 55.7046 194.769 55.4496C196.153 55.1946 197.512 55.0664 198.848 55.0664ZM198.179 68.1786C193.73 68.1786 191.503 69.8943 191.503 73.3256C191.503 76.3162 193.079 77.8093 196.224 77.8093C197.433 77.8093 198.734 77.5706 200.135 77.0945C201.533 76.6169 202.947 75.9198 204.378 74.9971V69.0364C202.216 68.4631 200.149 68.1786 198.179 68.1786Z" fill="#2B2523"/>
<path d="M53.5888 12.7051C31.8496 12.7051 14.2964 30.4307 14.2964 51.9989C14.2964 73.5642 31.8496 91.2913 53.5888 91.2913C75.3294 91.2913 92.8826 73.5642 92.8826 51.9989C92.8826 30.4307 75.3294 12.7051 53.5888 12.7051ZM47.4277 90.7976V83.0063C47.4277 80.2367 45.7312 77.7694 43.1592 76.6757C33.5343 72.5899 26.7954 63.0314 26.7954 51.9989C26.7954 37.2904 38.7653 25.2041 53.5888 25.2041C68.4152 25.2041 80.3836 37.2904 80.3836 51.9989C80.3836 69.3517 66.9604 85.7596 47.4277 90.7976Z" fill="#51C3F1"/>
</g>
<defs>
<clipPath id="clip0_662_9858">
<rect width="256.014" height="104" fill="white" transform="translate(0.652832)"/>
</clipPath>
</defs>
</svg>
