<svg width="227" height="71" viewBox="0 0 227 71" fill="none" xmlns="http://www.w3.org/2000/svg">
<g clip-path="url(#clip0_2009_2108)">
<rect x="0.224609" y="0.306641" width="225.797" height="70.2578" rx="15.0237" fill="white"/>
<path d="M78.2329 28.0566H76.8392L74.4977 20.8464L72.1563 28.0566H70.7625L67.9007 19.081H69.3502L71.543 26.2355L73.9031 19.081H75.0924L77.4525 26.2355L79.6453 19.081H81.0948L78.2329 28.0566ZM89.6685 26.9231C88.8633 27.8274 87.7916 28.2796 86.4537 28.2796C85.1157 28.2796 84.0379 27.8274 83.2202 26.9231C82.4149 26.0187 82.0123 24.8975 82.0123 23.5595C82.0123 22.2215 82.4149 21.1066 83.2202 20.2146C84.0379 19.3102 85.1157 18.858 86.4537 18.858C87.7916 18.858 88.8633 19.3102 89.6685 20.2146C90.4862 21.1066 90.895 22.2215 90.895 23.5595C90.895 24.8975 90.4862 26.0187 89.6685 26.9231ZM84.2609 26.0311C84.806 26.7001 85.5369 27.0346 86.4537 27.0346C87.3704 27.0346 88.0952 26.7001 88.6279 26.0311C89.1606 25.3497 89.427 24.5258 89.427 23.5595C89.427 22.5932 89.1606 21.7755 88.6279 21.1066C88.0952 20.4376 87.3704 20.1031 86.4537 20.1031C85.5369 20.1031 84.806 20.4438 84.2609 21.1251C83.7281 21.7941 83.4618 22.6056 83.4618 23.5595C83.4618 24.5258 83.7281 25.3497 84.2609 26.0311ZM94.375 28.0566H92.9813V19.081H94.375V20.5305C95.2051 19.4403 96.2023 18.8952 97.3669 18.8952V20.3261C97.1934 20.2889 97.0076 20.2703 96.8094 20.2703C96.3882 20.2703 95.9298 20.419 95.4342 20.7163C94.9387 21.0136 94.5856 21.3419 94.375 21.7012V28.0566ZM106.827 28.0566H105.043L101.81 24.0241L100.323 25.4922V28.0566H98.9293V15.6617H100.323V23.8569L105.043 19.081H106.809L102.832 23.1507L106.827 28.0566ZM111.132 28.2796C109.609 28.2796 108.401 27.8089 107.509 26.8673L108.233 25.8638C108.543 26.2231 108.964 26.5266 109.497 26.7744C110.042 27.0222 110.606 27.1461 111.188 27.1461C111.857 27.1461 112.377 27.0036 112.749 26.7187C113.121 26.4337 113.307 26.0621 113.307 25.6037C113.307 25.2072 113.115 24.8975 112.73 24.6745C112.346 24.4391 111.882 24.2657 111.337 24.1542C110.804 24.0303 110.265 23.894 109.72 23.7454C109.175 23.5843 108.71 23.3179 108.326 22.9463C107.942 22.5622 107.75 22.0605 107.75 21.441C107.75 20.7101 108.048 20.0969 108.642 19.6013C109.249 19.1058 110.067 18.858 111.095 18.858C112.446 18.858 113.554 19.2916 114.422 20.1588L113.771 21.1251C113.139 20.3694 112.247 19.9916 111.095 19.9916C110.488 19.9916 110.005 20.1278 109.646 20.4004C109.286 20.6606 109.107 20.9951 109.107 21.4039C109.107 21.7632 109.299 22.0481 109.683 22.2587C110.067 22.4569 110.525 22.618 111.058 22.7419C111.603 22.8534 112.148 22.9896 112.693 23.1507C113.238 23.3117 113.703 23.5967 114.087 24.0055C114.471 24.402 114.663 24.9223 114.663 25.5665C114.663 26.3594 114.353 27.0098 113.734 27.5177C113.115 28.0257 112.247 28.2796 111.132 28.2796ZM130.508 28.0566H129.114L126.773 20.8464L124.431 28.0566H123.038L120.176 19.081H121.625L123.818 26.2355L126.178 19.081H127.368L129.728 26.2355L131.92 19.081H133.37L130.508 28.0566ZM135.495 17.7988C135.248 17.7988 135.031 17.712 134.845 17.5386C134.659 17.3528 134.566 17.1298 134.566 16.8696C134.566 16.6094 134.659 16.3864 134.845 16.2006C135.031 16.0148 135.248 15.9219 135.495 15.9219C135.756 15.9219 135.979 16.0148 136.164 16.2006C136.35 16.3864 136.443 16.6094 136.443 16.8696C136.443 17.1298 136.35 17.3528 136.164 17.5386C135.979 17.712 135.756 17.7988 135.495 17.7988ZM136.202 28.0566H134.808V19.081H136.202V28.0566ZM141.063 28.2796C140.406 28.2796 139.911 28.1 139.576 27.7407C139.242 27.3815 139.075 26.8611 139.075 26.1797V20.3075H137.588V19.081H139.075V16.628H140.468V19.081H142.29V20.3075H140.468V25.8824C140.468 26.2293 140.543 26.508 140.691 26.7187C140.852 26.9293 141.082 27.0346 141.379 27.0346C141.788 27.0346 142.104 26.9107 142.327 26.6629L142.736 27.7036C142.327 28.0876 141.769 28.2796 141.063 28.2796ZM151.543 28.0566H150.149V22.1472C150.149 21.4039 149.976 20.8774 149.629 20.5676C149.282 20.2579 148.78 20.1031 148.124 20.1031C147.616 20.1031 147.114 20.2393 146.618 20.5119C146.135 20.7844 145.751 21.1127 145.466 21.4968V28.0566H144.073V15.6617H145.466V20.3818C145.813 19.973 146.278 19.6199 146.86 19.3226C147.442 19.0129 148.049 18.858 148.681 18.858C150.589 18.858 151.543 19.8119 151.543 21.7198V28.0566Z" fill="#202124"/>
<path d="M44.5828 53.7165H22.9277V45.1777H44.5828V53.7165Z" fill="#34A853"/>
<path d="M33.7577 14.0596C33.1717 14.0596 32.5494 14.3662 32.1949 14.7191L14.8339 31.8429C14.5155 32.1567 14.2695 32.7235 14.2695 33.1763V44.3782L39.8425 19.1792L35.3242 14.7191C34.966 14.3662 34.3437 14.0596 33.7577 14.0596Z" fill="#EA4335"/>
<path d="M22.9301 53.7164V35.8438L14.2695 44.379V51.5807C14.2695 52.85 15.145 53.7164 16.4365 53.7164H22.9301Z" fill="#FBBC04"/>
<path d="M39.8428 19.1787L33.7578 25.1719L44.5854 35.8426V53.7151H51.0827C52.3706 53.7151 53.2497 52.8523 53.2497 51.5796V33.1758C53.2497 32.723 53.0037 32.1597 52.6854 31.846L39.8428 19.1787Z" fill="#4285F4"/>
<path d="M76.6493 46.1246V43.4468H85.7457C85.8372 43.919 85.8922 44.4813 85.8922 45.0875C85.8922 47.0971 85.3346 49.5814 83.539 51.3511C81.793 53.1441 79.5602 54.1011 76.5996 54.1011C71.1155 54.1011 66.5059 49.7027 66.5059 44.2982C66.5059 38.8935 71.1155 34.4951 76.5996 34.4951C79.6334 34.4951 81.7904 35.6663 83.4159 37.1961L81.4997 39.0844C80.3349 38.0087 78.7591 37.1729 76.5996 37.1729C72.5971 37.1729 69.4665 40.3537 69.4665 44.2982C69.4665 48.2426 72.5971 51.4233 76.5996 51.4233C79.1962 51.4233 80.6752 50.394 81.6228 49.4628C82.395 48.7043 82.9029 47.613 83.0991 46.1246H76.6493Z" fill="#202124"/>
<path d="M99.7564 47.7902C99.7564 51.4251 96.8692 54.1029 93.3274 54.1029C89.7857 54.1029 86.8984 51.4251 86.8984 47.7902C86.8984 44.1321 89.7857 41.4775 93.3274 41.4775C96.8692 41.4801 99.7564 44.1321 99.7564 47.7902ZM96.9424 47.7902C96.9424 45.5174 95.2698 43.9644 93.3274 43.9644C91.3851 43.9644 89.7124 45.5174 89.7124 47.7902C89.7124 50.0372 91.3851 51.616 93.3274 51.616C95.2671 51.616 96.9424 50.0398 96.9424 47.7902Z" fill="#202124"/>
<path d="M113.786 47.7902C113.786 51.4251 110.898 54.1029 107.357 54.1029C103.815 54.1029 100.928 51.4251 100.928 47.7902C100.928 44.1321 103.815 41.4775 107.357 41.4775C110.898 41.4801 113.786 44.1321 113.786 47.7902ZM110.972 47.7902C110.972 45.5174 109.299 43.9644 107.357 43.9644C105.414 43.9644 103.742 45.5174 103.742 47.7902C103.742 50.0372 105.414 51.616 107.357 51.616C109.296 51.616 110.972 50.0398 110.972 47.7902Z" fill="#202124"/>
<path d="M127.225 41.862V53.1947C127.225 57.8564 124.435 59.7705 121.137 59.7705C118.032 59.7705 116.163 57.7145 115.459 56.0402L117.909 55.0367C118.346 56.066 119.414 57.2836 121.137 57.2836C123.247 57.2836 124.558 55.9912 124.558 53.5766V52.6685H124.461C123.83 53.4347 122.618 54.1029 121.09 54.1029C117.888 54.1029 114.951 51.3528 114.951 47.8134C114.951 44.2508 117.886 41.4775 121.09 41.4775C122.618 41.4775 123.83 42.1484 124.461 42.8887H124.558V41.8594L127.225 41.862ZM124.752 47.816C124.752 45.5922 123.247 43.967 121.33 43.967C119.388 43.967 117.765 45.5922 117.765 47.816C117.765 50.0166 119.391 51.6185 121.33 51.6185C123.247 51.6159 124.752 50.014 124.752 47.816Z" fill="#202124"/>
<path d="M131.992 35.2285V53.7201H129.178V35.2285H131.992Z" fill="#202124"/>
<path d="M143.267 49.8721L145.45 51.3064C144.746 52.3357 143.048 54.1029 140.114 54.1029C136.475 54.1029 133.758 51.3296 133.758 47.7902C133.758 44.0367 136.498 41.4775 139.799 41.4775C143.123 41.4775 144.75 44.0831 145.284 45.4942L145.574 46.2114L137.009 49.7018C137.663 50.9685 138.684 51.6134 140.114 51.6134C141.546 51.616 142.54 50.9246 143.267 49.8721ZM136.548 47.5993L142.273 45.2569C141.959 44.4675 141.011 43.918 139.897 43.918C138.464 43.918 136.475 45.1614 136.548 47.5993Z" fill="#202124"/>
<path d="M151.951 37.0342H153.939V44.2574H162.687V37.0342H164.673V53.72H162.687V46.1226H153.939V53.72H151.951V37.0342Z" fill="#202124"/>
<path d="M169.708 53.2539C168.764 52.6941 168.025 51.9331 167.496 50.9708C166.968 50.0086 166.703 48.9432 166.703 47.777C166.703 46.611 166.968 45.5482 167.496 44.5834C168.025 43.6211 168.76 42.8601 169.708 42.3003C170.653 41.7405 171.718 41.4619 172.899 41.4619C174.08 41.4619 175.145 41.7405 176.09 42.3003C177.035 42.8601 177.773 43.6211 178.302 44.5834C178.831 45.5456 179.095 46.611 179.095 47.777C179.095 48.9432 178.831 50.006 178.302 50.9708C177.773 51.9357 177.038 52.6941 176.09 53.2539C175.142 53.8137 174.08 54.0923 172.899 54.0923C171.718 54.0923 170.653 53.8137 169.708 53.2539ZM174.97 51.7524C175.608 51.3887 176.121 50.8624 176.506 50.1788C176.891 49.4952 177.084 48.6955 177.084 47.7796C177.084 46.8638 176.891 46.0641 176.506 45.3805C176.119 44.6969 175.608 44.1733 174.97 43.8068C174.331 43.4431 173.642 43.2599 172.902 43.2599C172.161 43.2599 171.467 43.4431 170.821 43.8068C170.174 44.1733 169.658 44.6969 169.271 45.3805C168.884 46.0641 168.693 46.8638 168.693 47.7796C168.693 48.6955 168.886 49.4978 169.271 50.1788C169.658 50.8624 170.174 51.3861 170.821 51.7524C171.467 52.1188 172.161 52.2994 172.902 52.2994C173.64 52.2994 174.331 52.1163 174.97 51.7524Z" fill="#202124"/>
<path d="M180.49 41.836H182.407V43.5824H182.5C182.846 42.9762 183.368 42.4731 184.061 42.0681C184.754 41.6631 185.487 41.4619 186.26 41.4619C187.141 41.4619 187.911 41.6709 188.566 42.0914C189.22 42.5118 189.689 43.069 189.974 43.7681C190.4 43.069 190.964 42.5093 191.666 42.0914C192.366 41.6709 193.183 41.4619 194.113 41.4619C195.5 41.4619 196.544 41.8772 197.246 42.7079C197.947 43.5385 198.299 44.6685 198.299 46.0977V53.7182H196.311V46.4047C196.311 45.3006 196.083 44.5009 195.625 44.0055C195.167 43.5076 194.489 43.2599 193.592 43.2599C192.992 43.2599 192.448 43.4302 191.961 43.7733C191.471 44.1164 191.089 44.5731 190.814 45.1484C190.539 45.7236 190.4 46.3453 190.4 47.0135V53.7234H188.39V46.4279C188.39 45.3083 188.163 44.5009 187.705 44.0055C187.247 43.5076 186.576 43.2599 185.695 43.2599C185.095 43.2599 184.55 43.4354 184.063 43.7836C183.574 44.1319 183.191 44.5989 182.917 45.1819C182.642 45.7649 182.503 46.3892 182.503 47.0573V53.7208H180.493V41.836H180.49Z" fill="#202124"/>
<path d="M202.741 53.2771C201.827 52.7328 201.112 51.9847 200.602 51.0275C200.089 50.0731 199.832 48.9973 199.832 47.8003C199.832 46.6497 200.073 45.5946 200.552 44.6299C201.034 43.6675 201.714 42.8988 202.597 42.3235C203.479 41.7483 204.504 41.4619 205.67 41.4619C206.853 41.4619 207.876 41.7225 208.743 42.2436C209.609 42.7646 210.276 43.4818 210.74 44.4003C211.206 45.316 211.439 46.366 211.439 47.5449C211.439 47.777 211.416 47.9808 211.369 48.1512H201.84C201.887 49.0515 202.108 49.8125 202.502 50.4342C202.895 51.0559 203.397 51.5228 204.005 51.8324C204.612 52.1446 205.246 52.2994 205.908 52.2994C207.452 52.2994 208.644 51.5847 209.478 50.1556L211.179 50.9708C210.659 51.9356 209.955 52.6941 209.065 53.2539C208.175 53.8137 207.099 54.0923 205.837 54.0923C204.688 54.0949 203.654 53.8214 202.741 53.2771ZM209.313 46.5207C209.282 46.0229 209.14 45.5276 208.887 45.0297C208.635 44.5318 208.237 44.1138 207.694 43.7707C207.149 43.4302 206.468 43.2574 205.649 43.2574C204.703 43.2574 203.903 43.5566 203.248 44.1551C202.593 44.7537 202.164 45.5405 201.96 46.5207H209.313Z" fill="#202124"/>
</g>
<defs>
<clipPath id="clip0_2009_2108">
<rect width="225.797" height="70.2578" fill="white" transform="translate(0.224609 0.308594)"/>
</clipPath>
</defs>
</svg>
