<svg width="94" height="104" viewBox="0 0 94 104" fill="none" xmlns="http://www.w3.org/2000/svg">
<g clip-path="url(#clip0_662_9827)">
<path d="M83.5643 0H9.99394C4.47442 0 0 4.47643 0 9.99837V94.0015C0 99.5236 4.47442 104 9.99394 104H83.5643C89.0838 104 93.5582 99.5236 93.5582 94.0015V9.99837C93.5582 4.47643 89.0838 0 83.5643 0Z" fill="white"/>
<path d="M8.31709 29.1211H76.9242C82.089 29.1211 86.2821 33.3142 86.2821 38.479V67.6013C86.2821 68.1752 85.8162 68.6411 85.2423 68.6411H16.6353C11.4705 68.6411 7.27734 64.4479 7.27734 59.2832V30.1608C7.27734 29.587 7.74324 29.1211 8.31709 29.1211Z" fill="#E94D1A"/>
<path d="M67.7109 57.1969C68.7353 57.1969 69.5949 56.3661 69.6307 55.3411C69.6665 54.3163 68.8651 53.4854 67.8406 53.4854L67.8401 53.4846C65.8209 53.4846 64.2414 51.8478 64.3109 49.8282C64.3109 49.8268 64.3112 49.8255 64.311 49.8241C64.3112 49.8227 64.3114 49.8213 64.3114 49.82C64.383 47.8003 66.0767 46.1635 68.0956 46.1635C70.1152 46.1635 71.6951 47.8014 71.6245 49.8218C71.6245 49.8238 71.6241 49.8258 71.624 49.8278L71.4419 55.024C71.406 56.0488 72.2075 56.8797 73.2319 56.8797C74.2564 56.8797 75.1159 56.0488 75.1516 55.024L75.3332 49.8282H75.3348C75.3348 49.8261 75.3351 49.824 75.3352 49.8218C75.4773 45.7512 72.2941 42.4512 68.2252 42.4512C64.1564 42.4512 60.7441 45.8319 60.6018 49.9025V49.904C60.6018 49.9055 60.6018 49.9063 60.6018 49.9063C60.4595 53.9776 63.6421 57.1969 67.7109 57.1969Z" fill="white"/>
<path d="M57.0837 42.8828C56.0593 42.8828 55.1853 43.7137 55.1315 44.7386L54.8428 50.2515H54.8418C54.8417 50.2537 54.8418 50.2557 54.8416 50.2578C54.7359 52.2784 53.6705 53.9163 51.651 53.9163C49.6313 53.9163 48.7376 52.2784 48.8435 50.2578C48.8436 50.2557 48.844 50.2537 48.8441 50.2515H48.8431L49.1318 44.7386C49.1856 43.7137 48.3986 42.8828 47.3742 42.8828C46.3497 42.8828 45.4757 43.7137 45.422 44.7386L45.1332 50.252C45.133 50.254 45.133 50.256 45.1329 50.2578C44.9197 54.3286 47.3877 57.6285 51.4565 57.6285C52.7876 57.6285 53.6463 57.298 54.4744 56.5248L54.4741 56.5293L54.4734 56.5302C54.3676 58.5506 52.5967 59.4913 50.5771 59.4913L50.5708 59.4909L50.5707 59.4922C49.5507 59.4977 48.6824 60.3263 48.6289 61.3478C48.5754 62.3699 49.3579 63.199 50.3783 63.2034L50.3812 63.2035H50.3867C54.4539 63.2014 58.0036 60.7322 58.2169 56.6629L58.8414 44.7386C58.8951 43.7137 58.1082 42.8828 57.0837 42.8828Z" fill="white"/>
<path d="M41.4626 42.8828C40.4381 42.8828 39.5786 43.7137 39.5428 44.7386L39.3502 50.2515H39.3492C39.3491 50.2537 39.3493 50.2557 39.3492 50.2578C39.2787 52.2784 38.2419 53.9163 36.2223 53.9163C34.2028 53.9163 33.2804 52.2784 33.351 50.2578C33.3512 50.2557 33.3515 50.2537 33.3515 50.2515H33.3505L33.5431 44.7386C33.5789 43.7137 32.7775 42.8828 31.753 42.8828C30.7286 42.8828 29.8691 43.7137 29.8332 44.7386L29.6406 50.252C29.6406 50.254 29.6405 50.256 29.6405 50.2578C29.4982 54.3286 31.616 57.6285 36.254 57.6285C40.8636 57.6285 42.9176 54.3286 43.0599 50.2578V50.252L43.2526 44.7386C43.2885 43.7137 42.487 42.8828 41.4626 42.8828Z" fill="white"/>
<path d="M17.2845 40.3518C17.3203 39.3269 18.1798 38.4961 19.2043 38.4961C20.2287 38.4961 21.0302 39.3269 20.9943 40.3518L20.9143 42.7526H26.0808C27.1052 42.7526 27.9067 43.5834 27.8709 44.6083C27.835 45.6332 26.9755 46.4641 25.9512 46.4641H20.7817L20.6401 50.3326L20.6407 50.3335C20.5701 52.3539 22.0695 53.9919 24.089 53.9919L24.0933 53.9916L24.0954 53.9926H26.0892C27.1137 53.9926 27.9151 54.8235 27.8793 55.8484C27.8435 56.8733 26.9839 57.7041 25.9595 57.7041H23.9594C19.8904 57.7041 16.7879 54.4041 16.9301 50.3335V50.3326L17.0719 46.4641H15.2408C14.2165 46.4641 13.4149 45.6332 13.4509 44.6083C13.4866 43.5834 14.3461 42.7526 15.3706 42.7526H17.2043L17.2845 40.3518Z" fill="white"/>
<path d="M76.6398 38.9965C75.4831 38.142 73.9529 37.9866 72.6467 38.5913L72.5369 38.6435L72.54 38.6495C72.0087 38.9674 71.7909 39.6458 72.0554 40.2189C72.3393 40.8335 73.0709 41.1037 73.6848 40.8194L73.7184 40.8037C74.2013 40.5973 74.7579 40.6605 75.1808 40.9732C75.6026 41.2847 75.8288 41.8033 75.772 42.3265L75.8892 42.3394L75.7669 42.3694C75.7032 43.0304 76.169 43.6174 76.8272 43.7051C76.883 43.7127 76.9384 43.7164 76.9934 43.7164C77.5823 43.7164 78.0965 43.2945 78.2022 42.6855L78.2068 42.6486C78.3813 41.2388 77.7808 39.8395 76.6398 38.9965Z" fill="white"/>
<path d="M79.327 35.0866C76.9919 33.3804 73.9131 33.0832 71.2812 34.3141C70.6682 34.602 70.4033 35.3351 70.6909 35.9486C70.8303 36.246 71.0772 36.471 71.3855 36.5826C71.6953 36.6943 72.0281 36.6786 72.3281 36.5378C74.1393 35.6891 76.2667 35.8931 77.8786 37.071C79.4918 38.2499 80.3336 40.2157 80.0757 42.2016C80.0341 42.526 80.1223 42.8481 80.3244 43.1087C80.5262 43.3688 80.816 43.535 81.1405 43.5765C81.1931 43.5832 81.2457 43.5865 81.2974 43.5865C81.9031 43.5865 82.4311 43.1351 82.511 42.5186C82.8853 39.6426 81.6653 36.7948 79.327 35.0866Z" fill="white"/>
<path d="M16.6348 73.8398H85.2418C85.8157 73.8398 86.2816 74.3057 86.2816 74.8796V84.2419C86.2816 89.4067 82.0885 93.5998 76.9237 93.5998H8.31661C7.74275 93.5998 7.27686 93.1339 7.27686 92.5601V83.1978C7.27686 78.033 11.47 73.8398 16.6348 73.8398Z" fill="#EE761D"/>
<g opacity="0.8">
<mask id="mask0_662_9827" style="mask-type:luminance" maskUnits="userSpaceOnUse" x="7" y="73" width="80" height="21">
<path d="M16.6357 73.8418H85.2428C85.8167 73.8418 86.2826 74.3077 86.2826 74.8816V84.2439C86.2826 89.4087 82.0894 93.6018 76.9247 93.6018H8.31758C7.74373 93.6018 7.27783 93.1359 7.27783 92.562V83.1997C7.27783 78.0349 11.471 73.8418 16.6357 73.8418Z" fill="white"/>
</mask>
<g mask="url(#mask0_662_9827)">
<path d="M86.2826 81.5371H7.27783V93.6011H86.2826V81.5371Z" fill="url(#paint0_linear_662_9827)"/>
<path d="M86.3764 73.8418H7.27783V81.5378H86.3764V73.8418Z" fill="url(#paint1_linear_662_9827)"/>
</g>
</g>
<path d="M12.1894 22.1317L8.77637 11.6035H10.7824L13.3122 19.7056H12.6385L15.1235 11.6035H16.6353L19.1201 19.7056H18.4317L20.9763 11.6035H22.9823L19.5543 22.1317H18.0425L15.5425 14.0447H16.2011L13.7162 22.1317H12.1894Z" fill="#010100"/>
<path d="M26.5747 22.2843C25.8462 22.2843 25.1902 22.1173 24.6063 21.7826C24.0225 21.4482 23.5584 20.994 23.2142 20.4198C22.8699 19.8458 22.6978 19.2045 22.6978 18.4954C22.6978 17.7867 22.8673 17.1501 23.2067 16.586C23.5459 16.0219 24.01 15.5728 24.5987 15.2381C25.1876 14.9037 25.8413 14.7363 26.5599 14.7363C27.2983 14.7363 27.9594 14.9037 28.5433 15.2381C29.127 15.5728 29.5886 16.0219 29.928 16.586C30.2671 17.1501 30.4369 17.7867 30.4369 18.4954C30.4369 19.2045 30.2671 19.8458 29.928 20.4198C29.5886 20.994 29.127 21.4482 28.5433 21.7826C27.9594 22.1173 27.3032 22.2843 26.5747 22.2843ZM26.5599 20.4572C26.929 20.4572 27.2559 20.3749 27.5403 20.2102C27.8247 20.0454 28.044 19.8159 28.199 19.5212C28.3535 19.2269 28.431 18.8899 28.431 18.5104C28.431 18.131 28.351 17.7967 28.1915 17.507C28.0317 17.2175 27.8122 16.9902 27.5328 16.8255C27.2532 16.6608 26.929 16.5785 26.5599 16.5785C26.2005 16.5785 25.8812 16.6608 25.6017 16.8255C25.3224 16.9902 25.1027 17.2175 24.9432 17.507C24.7834 17.7967 24.7036 18.131 24.7036 18.5104C24.7036 18.8899 24.7834 19.2269 24.9432 19.5212C25.1027 19.8159 25.3224 20.0454 25.6017 20.2102C25.8812 20.3749 26.2005 20.4572 26.5599 20.4572Z" fill="#010100"/>
<path d="M31.6938 22.1332V14.8997H33.6549V22.1332H31.6938ZM33.6549 18.1347L32.8913 17.6255C32.9813 16.737 33.2406 16.0356 33.6698 15.5213C34.0988 15.0072 34.7176 14.75 35.5261 14.75C35.8753 14.75 36.1896 14.8076 36.469 14.9222C36.7483 15.0373 37.0028 15.2243 37.2326 15.4839L36.005 16.8916C35.895 16.7717 35.763 16.682 35.6083 16.622C35.4534 16.5621 35.2764 16.5323 35.077 16.5323C34.6577 16.5323 34.3158 16.6647 34.0514 16.9292C33.7869 17.1936 33.6549 17.5954 33.6549 18.1347Z" fill="#010100"/>
<path d="M37.9209 22.1323V11.3047H39.882V22.1323H37.9209ZM42.5314 22.1323L39.7322 18.4033L42.5166 14.8987H44.777L41.5136 18.8526L41.5885 17.894L44.9266 22.1323H42.5314Z" fill="#010100"/>
<path d="M47.8902 22.2965C47.4808 22.2965 47.0792 22.2415 46.6852 22.1318C46.2909 22.0221 45.9293 21.8698 45.5999 21.675C45.2706 21.4803 44.9862 21.2433 44.7466 20.9636L45.9142 19.7806C46.1636 20.0601 46.4531 20.2699 46.7824 20.4095C47.1117 20.5494 47.476 20.6191 47.8751 20.6191C48.1945 20.6191 48.4365 20.5742 48.6012 20.4844C48.7659 20.3946 48.8483 20.2598 48.8483 20.0801C48.8483 19.8806 48.7608 19.7258 48.5862 19.6159C48.4116 19.506 48.1844 19.4135 47.9052 19.3389C47.6256 19.2638 47.3336 19.1791 47.0295 19.0841C46.7249 18.9894 46.433 18.8647 46.1538 18.7098C45.8742 18.5551 45.647 18.3405 45.4726 18.0658C45.2978 17.7914 45.2107 17.4345 45.2107 16.995C45.2107 16.5359 45.323 16.1366 45.5476 15.7969C45.7721 15.4577 46.0939 15.1931 46.513 15.0031C46.932 14.8136 47.4262 14.7188 47.9949 14.7188C48.5937 14.7188 49.135 14.8236 49.6192 15.0332C50.103 15.2428 50.5046 15.5573 50.8242 15.9767L49.6415 17.1597C49.4221 16.8901 49.175 16.6956 48.9007 16.5757C48.626 16.4558 48.3291 16.3959 48.01 16.3959C47.7204 16.3959 47.4983 16.4408 47.3438 16.5309C47.1889 16.6206 47.1117 16.7455 47.1117 16.9052C47.1117 17.0849 47.199 17.2249 47.3736 17.3244C47.5483 17.4243 47.7752 17.5117 48.0548 17.5866C48.3342 17.6614 48.626 17.7463 48.9305 17.8412C49.2349 17.9362 49.5242 18.0685 49.7987 18.2381C50.0732 18.4079 50.2977 18.6326 50.4724 18.9118C50.647 19.1916 50.7343 19.5511 50.7343 19.9903C50.7343 20.6991 50.4799 21.2608 49.9709 21.675C49.4621 22.0893 48.7683 22.2965 47.8902 22.2965Z" fill="#010100"/>
<path d="M56.9024 22.132L54.1929 14.8984H56.1688L57.9352 20.1552L57.3364 20.1702L59.1477 14.8984H60.5698L62.3812 20.1702L61.7823 20.1552L63.5487 14.8984H65.5246L62.8301 22.132H61.4081L59.5818 17.13H60.1357L58.3096 22.132H56.9024Z" fill="#010100"/>
<path d="M67.3504 13.7309C67.0311 13.7309 66.7667 13.6237 66.5572 13.4088C66.3474 13.1942 66.2427 12.9273 66.2427 12.6077C66.2427 12.2982 66.3474 12.0336 66.5572 11.8138C66.7667 11.5945 67.0311 11.4844 67.3504 11.4844C67.6797 11.4844 67.9467 11.5945 68.1514 11.8138C68.3558 12.0336 68.4582 12.2982 68.4582 12.6077C68.4582 12.9273 68.3558 13.1942 68.1514 13.4088C67.9467 13.6237 67.6797 13.7309 67.3504 13.7309ZM66.3625 22.1324V14.8988H68.3384V22.1324H66.3625Z" fill="#010100"/>
<path d="M69.4448 16.623V14.9007H74.7889V16.623H69.4448ZM71.1363 22.1342V11.8906H73.0972V22.1342H71.1363Z" fill="#010100"/>
<path d="M75.897 22.1323V11.3047H77.8581V22.1323H75.897ZM80.7621 22.1323V17.9838C80.7621 17.5549 80.6273 17.205 80.3579 16.9356C80.0885 16.666 79.739 16.5313 79.31 16.5313C79.0307 16.5313 78.7809 16.5912 78.5616 16.7108C78.3419 16.8307 78.1698 17.0007 78.0451 17.2201C77.9203 17.4399 77.8581 17.6944 77.8581 17.9838L77.0945 17.5945C77.0945 17.0255 77.2143 16.5288 77.4539 16.1043C77.6935 15.6802 78.025 15.3481 78.4494 15.1086C78.8733 14.8689 79.36 14.7491 79.9088 14.7491C80.4576 14.7491 80.944 14.8689 81.3684 15.1086C81.7923 15.3481 82.1243 15.6775 82.3639 16.097C82.6033 16.5163 82.723 17.0007 82.723 17.5495V22.1323H80.7621Z" fill="#010100"/>
</g>
<defs>
<linearGradient id="paint0_linear_662_9827" x1="6.73117" y1="87.7343" x2="86.363" y2="87.4059" gradientUnits="userSpaceOnUse">
<stop stop-color="#EF9E3C"/>
<stop offset="1" stop-color="#DC2261" stop-opacity="0.7"/>
</linearGradient>
<linearGradient id="paint1_linear_662_9827" x1="25.1285" y1="55.9912" x2="68.5258" y2="99.3884" gradientUnits="userSpaceOnUse">
<stop stop-color="#F5DE45" stop-opacity="0.8"/>
<stop offset="1" stop-color="#EC6544"/>
</linearGradient>
<clipPath id="clip0_662_9827">
<rect width="93.5582" height="104" fill="white"/>
</clipPath>
</defs>
</svg>
