<svg width="174" height="71" viewBox="0 0 174 71" fill="none" xmlns="http://www.w3.org/2000/svg">
<g clip-path="url(#clip0_2009_2090)">
<path d="M172.266 53.806V17.0625C172.266 8.36281 165.185 1.28516 156.485 1.28516H17.0527C8.35305 1.28516 1.27539 8.36281 1.27539 17.0625V53.806C1.27539 62.5047 8.35305 69.5823 17.0527 69.5823H156.485C165.185 69.5823 172.266 62.5047 172.266 53.806Z" fill="white"/>
<path d="M156.485 1.28645C165.186 1.28645 172.267 8.36411 172.267 17.0638V53.8073C172.267 62.506 165.186 69.5826 156.485 69.5826H17.0531C8.35336 69.5826 1.2757 62.506 1.2757 53.8073V17.0638C1.2757 8.36411 8.35336 1.28645 17.0531 1.28645H156.485ZM156.485 0.306641H17.0531C7.81268 0.306641 0.294922 7.82343 0.294922 17.0638V53.8073C0.294922 63.0467 7.81268 70.5644 17.0531 70.5644H156.485C165.727 70.5644 173.246 63.0467 173.246 53.8073V17.0638C173.246 7.82343 165.727 0.306641 156.485 0.306641Z" fill="#B1B0B2"/>
<path d="M156.485 1.28645C165.186 1.28645 172.267 8.36411 172.267 17.0638V53.8073C172.267 62.506 165.186 69.5826 156.485 69.5826H17.0531C8.35336 69.5826 1.2757 62.506 1.2757 53.8073V17.0638C1.2757 8.36411 8.35336 1.28645 17.0531 1.28645H156.485ZM156.485 0.306641H17.0531C7.81268 0.306641 0.294922 7.82343 0.294922 17.0638V53.8073C0.294922 63.0467 7.81268 70.5644 17.0531 70.5644H156.485C165.727 70.5644 173.246 63.0467 173.246 53.8073V17.0638C173.246 7.82343 165.727 0.306641 156.485 0.306641Z" fill="white"/>
<path d="M80.9267 24.7558L79.3763 18.4638L77.8409 24.7558H76.2228L73.9316 16.3877H75.4054L77.0562 23.1607L78.6146 16.6177H80.1858L81.7601 23.1497L83.411 16.3877H84.8837L82.5447 24.7558H80.9267Z" fill="#2B2523"/>
<path d="M86.4668 20.5785C86.4668 19.6923 86.6241 18.9206 86.9388 18.2605C87.2515 17.6003 87.7105 17.0905 88.3149 16.732C88.9183 16.3746 89.6352 16.1953 90.4647 16.1953C91.2682 16.1953 91.9712 16.3686 92.5717 16.7141C93.1711 17.0596 93.6351 17.5634 93.9657 18.2236C94.2952 18.8838 94.4605 19.6684 94.4605 20.5785C94.4605 21.4637 94.3042 22.2364 93.9906 22.8966C93.6759 23.5578 93.2179 24.0656 92.6125 24.424C92.0091 24.7815 91.2932 24.9617 90.4647 24.9617C89.6592 24.9617 88.9561 24.7885 88.3577 24.442C87.7573 24.0964 87.2923 23.5926 86.9617 22.9324C86.6321 22.2733 86.4668 21.4886 86.4668 20.5785ZM87.9644 20.5785C87.9644 21.6091 88.1775 22.3918 88.6037 22.9265C89.0308 23.4622 89.6511 23.73 90.4647 23.73C91.2772 23.73 91.8965 23.4622 92.3237 22.9265C92.7509 22.3918 92.963 21.6091 92.963 20.5785C92.963 19.5479 92.7509 18.7643 92.3237 18.2296C91.8965 17.6949 91.2772 17.427 90.4647 17.427C89.6511 17.427 89.0308 17.6949 88.6037 18.2296C88.1775 18.7643 87.9644 19.5479 87.9644 20.5785Z" fill="#2B2523"/>
<path d="M97.043 24.7558V16.3877H100.171C100.99 16.3877 101.649 16.6117 102.144 17.0588C102.638 17.5049 102.886 18.1063 102.886 18.8631C102.886 19.4107 102.747 19.8817 102.469 20.276C102.193 20.6703 101.789 20.972 101.256 21.1821L103.419 24.7558H101.945L99.9883 21.436H98.5157V24.7558H97.043ZM98.5157 20.2999H99.9814C100.919 20.2999 101.388 19.8379 101.388 18.9109C101.388 17.9858 100.931 17.5238 100.016 17.5238H98.5157V20.2999Z" fill="#2B2523"/>
<path d="M105.521 24.7558V16.3877H106.994V20.0709L110.267 16.3877H111.957L108.394 20.3298L112.33 24.7558H110.495L106.994 20.7719V24.7558H105.521Z" fill="#2B2523"/>
<path d="M115.854 20.9041C115.187 20.6482 114.703 20.3396 114.401 19.9801C114.101 19.6226 113.949 19.1725 113.949 18.6339C113.949 17.8861 114.212 17.2916 114.742 16.8525C115.268 16.4144 115.979 16.1953 116.871 16.1953C117.612 16.1953 118.365 16.3397 119.131 16.6305V17.8014C118.361 17.5595 117.659 17.439 117.027 17.439C115.975 17.439 115.447 17.7975 115.447 18.5134C115.447 18.7872 115.542 19.0122 115.734 19.1885C115.923 19.3677 116.259 19.544 116.745 19.7212L117.755 20.0956C118.422 20.3445 118.904 20.6482 119.203 21.0017C119.499 21.3552 119.65 21.8053 119.65 22.3529C119.65 23.1674 119.363 23.8047 118.79 24.2677C118.219 24.7297 117.435 24.9617 116.437 24.9617C116.011 24.9617 115.584 24.9179 115.157 24.8353C114.73 24.7496 114.356 24.6312 114.033 24.4788V23.3068C114.423 23.4353 114.828 23.5369 115.253 23.6085C115.678 23.6812 116.062 23.7171 116.402 23.7171C116.966 23.7171 117.398 23.6155 117.7 23.4094C118.002 23.2053 118.152 22.9085 118.152 22.5222C118.152 22.2484 118.06 22.0233 117.877 21.8461C117.695 21.6699 117.374 21.4926 116.913 21.3144L115.854 20.9041Z" fill="#2B2523"/>
<path d="M132.522 24.7558L130.973 18.4638L129.437 24.7558H127.819L125.527 16.3877H127.001L128.651 23.1607L130.211 16.6177H131.782L133.355 23.1497L135.007 16.3877H136.479L134.14 24.7558H132.522Z" fill="#2B2523"/>
<path d="M140.139 16.3877H138.666V24.7558H140.139V16.3877Z" fill="#2B2523"/>
<path d="M144.932 24.7558V17.5955H142.311V16.3877H149.025V17.5955H146.405V24.7558H144.932Z" fill="#2B2523"/>
<path d="M156.462 24.7558V21.0845H152.622V24.7558H151.15V16.3877H152.622V19.9016H156.462V16.3877H157.934V24.7558H156.462Z" fill="#2B2523"/>
<path d="M80.3947 37.5068C84.1098 37.5068 85.9668 39.108 85.9668 42.3063V53.7084C85.9668 54.03 85.8055 54.1913 85.4839 54.1913H84.8078C84.4862 54.1913 84.3129 54.03 84.292 53.7084L84.1635 52.3233C82.3165 53.804 80.3848 54.5458 78.3654 54.5458C76.8838 54.5458 75.7078 54.1226 74.8385 53.2732C73.9693 52.4249 73.5352 51.2927 73.5352 49.8758C73.5352 48.3075 74.0669 47.0738 75.1283 46.1727C76.1927 45.2695 77.6585 44.8185 79.5255 44.8185C80.2125 44.8185 80.9643 44.8842 81.7798 45.0116C82.5953 45.1401 83.3789 45.3233 84.1317 45.5593V42.8539C84.1317 41.5445 83.82 40.6055 83.1967 40.037C82.5734 39.4674 81.5438 39.1826 80.105 39.1826C78.7737 39.1826 77.3677 39.3977 75.886 39.8269C75.6501 39.8916 75.4619 39.9504 75.3234 40.0041C75.1821 40.0579 75.0695 40.0838 74.9849 40.0838C74.726 40.0838 74.5976 39.9454 74.5976 39.6666V39.1508C74.5976 38.8282 74.737 38.6141 75.0168 38.5065C75.8323 38.1839 76.7075 37.938 77.6415 37.7657C78.5755 37.5935 79.4926 37.5068 80.3947 37.5068ZM79.9437 46.3649C76.9376 46.3649 75.435 47.5239 75.435 49.842C75.435 51.8623 76.4984 52.871 78.6233 52.871C79.4388 52.871 80.32 52.7097 81.265 52.388C82.209 52.0654 83.1648 51.5944 84.1317 50.9711V46.9444C82.671 46.557 81.2749 46.3649 79.9437 46.3649Z" fill="#2B2523"/>
<path d="M90.2188 30.8423C90.2188 30.5207 90.3791 30.3604 90.7017 30.3604H91.5709C91.8926 30.3604 92.0549 30.5207 92.0549 30.8423V51.3922C92.0549 51.8642 92.1455 52.1967 92.3287 52.3909C92.51 52.5831 92.8375 52.6807 93.3105 52.6807C93.439 52.6807 93.5853 52.6707 93.7456 52.6488C93.9069 52.6269 94.0404 52.6149 94.1479 52.6149C94.4486 52.6149 94.599 52.7663 94.599 53.066V53.6784C94.599 53.9363 94.4595 54.0976 94.1808 54.1613C94.0513 54.2051 93.8631 54.237 93.6162 54.2579C93.3692 54.2788 93.1492 54.2908 92.956 54.2908C92.0977 54.2908 91.4256 54.0369 90.9426 53.533C90.4597 53.0292 90.2188 52.3252 90.2188 51.4241V30.8423Z" fill="#2B2523"/>
<path d="M107.76 52.4547C108.038 52.3691 108.243 52.2984 108.371 52.2456C108.501 52.1918 108.617 52.1649 108.727 52.1649C108.983 52.1649 109.112 52.3053 109.112 52.5831V53.0342C109.112 53.3777 108.995 53.6038 108.759 53.7113C107.212 54.3545 105.57 54.6772 103.83 54.6772C101.362 54.6772 99.4766 53.9632 98.1772 52.5353C96.8787 51.1075 96.2285 49.0194 96.2285 46.2702C96.2285 44.918 96.4018 43.6992 96.7433 42.6149C97.0879 41.5315 97.5857 40.6075 98.2419 39.8458C98.8971 39.083 99.6967 38.5035 100.641 38.1062C101.586 37.7089 102.65 37.5098 103.83 37.5098C105.698 37.5098 107.142 37.9399 108.162 38.7982C109.182 39.6575 109.692 40.8594 109.692 42.4058C109.692 43.9302 109.15 45.0524 108.065 45.7723C106.981 46.4912 105.302 46.8517 103.024 46.8517C102.209 46.8517 101.386 46.8029 100.561 46.7053C99.7345 46.6088 98.912 46.4425 98.0965 46.2065C98.0965 48.5245 98.5854 50.2382 99.5622 51.3444C100.539 52.4497 102.005 53.0023 103.959 53.0023C105.226 53.0023 106.493 52.8191 107.76 52.4547ZM103.67 39.1527C102.059 39.1527 100.787 39.6247 99.852 40.5696C98.917 41.5146 98.3544 42.8997 98.1622 44.7238C98.9997 44.9399 99.8301 45.1012 100.658 45.2077C101.484 45.3153 102.316 45.3691 103.154 45.3691C104.764 45.3691 105.945 45.1331 106.697 44.6601C107.448 44.1881 107.824 43.4353 107.824 42.4058C107.824 40.2371 106.439 39.1527 103.67 39.1527Z" fill="#2B2523"/>
<path d="M118.543 47.0424L113.871 53.8383C113.701 54.0742 113.474 54.1917 113.196 54.1917H112.295C112.015 54.1917 111.875 54.0742 111.875 53.8383C111.875 53.7526 111.951 53.6122 112.101 53.419L117.608 45.7539L112.583 38.732C112.457 38.5398 112.391 38.4104 112.391 38.3457C112.391 38.1097 112.53 37.9922 112.81 37.9922H113.808C114.088 37.9922 114.313 38.1097 114.485 38.3457L118.704 44.337L122.924 38.3457C123.095 38.1097 123.309 37.9922 123.567 37.9922H124.436C124.716 37.9922 124.855 38.1097 124.855 38.3457C124.855 38.4323 124.792 38.5717 124.662 38.7639L119.702 45.6254L125.21 53.419C125.339 53.6122 125.403 53.7526 125.403 53.8383C125.403 54.0742 125.264 54.1917 124.984 54.1917H123.986C123.728 54.1917 123.513 54.0742 123.343 53.8383L118.543 47.0424Z" fill="#2B2523"/>
<path d="M134.189 37.5068C137.903 37.5068 139.76 39.108 139.76 42.3063V53.7084C139.76 54.03 139.599 54.1913 139.278 54.1913H138.601C138.278 54.1913 138.107 54.03 138.085 53.7084L137.957 52.3233C136.11 53.804 134.177 54.5458 132.158 54.5458C130.677 54.5458 129.502 54.1226 128.633 53.2732C127.761 52.4249 127.328 51.2927 127.328 49.8758C127.328 48.3075 127.859 47.0738 128.922 46.1727C129.985 45.2695 131.45 44.8185 133.318 44.8185C134.004 44.8185 134.756 44.8842 135.573 45.0116C136.388 45.1401 137.172 45.3233 137.925 45.5593V42.8539C137.925 41.5445 137.613 40.6055 136.99 40.037C136.366 39.4674 135.337 39.1826 133.898 39.1826C132.568 39.1826 131.161 39.3977 129.68 39.8269C129.443 39.8916 129.254 39.9504 129.115 40.0041C128.974 40.0579 128.863 40.0838 128.777 40.0838C128.519 40.0838 128.39 39.9454 128.39 39.6666V39.1508C128.39 38.8282 128.53 38.6141 128.81 38.5065C129.624 38.1839 130.5 37.938 131.434 37.7657C132.368 37.5935 133.287 37.5068 134.189 37.5068ZM133.737 46.3649C130.732 46.3649 129.227 47.5239 129.227 49.842C129.227 51.8623 130.291 52.871 132.416 52.871C133.233 52.871 134.112 52.7097 135.058 52.388C136.003 52.0654 136.958 51.5944 137.925 50.9711V46.9444C136.464 46.557 135.068 46.3649 133.737 46.3649Z" fill="#2B2523"/>
<path d="M36.0579 8.89062C21.3718 8.89062 9.51367 20.8653 9.51367 35.4358C9.51367 50.0044 21.3718 61.98 36.0579 61.98C50.7449 61.98 62.603 50.0044 62.603 35.4358C62.603 20.8653 50.7449 8.89062 36.0579 8.89062ZM31.8957 61.6464V56.383C31.8957 54.512 30.7496 52.8452 29.0121 52.1063C22.51 49.3462 17.9575 42.8888 17.9575 35.4358C17.9575 25.4994 26.0438 17.3344 36.0579 17.3344C46.0739 17.3344 54.1593 25.4994 54.1593 35.4358C54.1593 47.1586 45.0911 58.243 31.8957 61.6464Z" fill="#51C3F1"/>
</g>
<defs>
<clipPath id="clip0_2009_2090">
<rect width="172.951" height="70.2578" fill="white" transform="translate(0.294922 0.308594)"/>
</clipPath>
</defs>
</svg>
