<svg width="335" height="104" viewBox="0 0 335 104" fill="none" xmlns="http://www.w3.org/2000/svg">
<g clip-path="url(#clip0_662_9876)">
<rect x="0.76123" width="334.239" height="104" rx="22.239" fill="white"/>
<path d="M116.235 40.9141H114.172L110.706 30.241L107.24 40.9141H105.177L100.94 27.6277H103.086L106.332 38.2183L109.826 27.6277H111.586L115.08 38.2183L118.325 27.6277H120.471L116.235 40.9141ZM133.163 39.2361C131.971 40.5748 130.384 41.2442 128.404 41.2442C126.423 41.2442 124.828 40.5748 123.617 39.2361C122.425 37.8974 121.829 36.2377 121.829 34.2571C121.829 32.2766 122.425 30.6261 123.617 29.3057C124.828 27.967 126.423 27.2976 128.404 27.2976C130.384 27.2976 131.971 27.967 133.163 29.3057C134.373 30.6261 134.978 32.2766 134.978 34.2571C134.978 36.2377 134.373 37.8974 133.163 39.2361ZM125.158 37.9157C125.965 38.906 127.047 39.4011 128.404 39.4011C129.761 39.4011 130.834 38.906 131.622 37.9157C132.411 36.9071 132.805 35.6876 132.805 34.2571C132.805 32.8267 132.411 31.6164 131.622 30.6261C130.834 29.6358 129.761 29.1407 128.404 29.1407C127.047 29.1407 125.965 29.645 125.158 30.6536C124.369 31.6439 123.975 32.8451 123.975 34.2571C123.975 35.6876 124.369 36.9071 125.158 37.9157ZM140.129 40.9141H138.066V27.6277H140.129V29.7734C141.358 28.1596 142.834 27.3527 144.558 27.3527V29.4708C144.301 29.4158 144.026 29.3882 143.733 29.3882C143.109 29.3882 142.431 29.6083 141.697 30.0484C140.964 30.4886 140.441 30.9745 140.129 31.5064V40.9141ZM158.562 40.9141H155.921L151.135 34.9448L148.934 37.118V40.9141H146.871V22.5663H148.934V34.6973L155.921 27.6277H158.534L152.648 33.652L158.562 40.9141ZM164.935 41.2442C162.679 41.2442 160.891 40.5473 159.571 39.1536L160.643 37.6681C161.102 38.1999 161.725 38.6492 162.514 39.016C163.321 39.3828 164.155 39.5662 165.017 39.5662C166.007 39.5662 166.778 39.3553 167.328 38.9335C167.878 38.5117 168.153 37.9615 168.153 37.283C168.153 36.6962 167.869 36.2377 167.3 35.9076C166.732 35.5592 166.044 35.3024 165.237 35.1374C164.449 34.954 163.651 34.7523 162.844 34.5322C162.037 34.2938 161.349 33.8995 160.781 33.3494C160.212 32.7809 159.928 32.0382 159.928 31.1212C159.928 30.0393 160.368 29.1315 161.249 28.398C162.147 27.6644 163.357 27.2976 164.88 27.2976C166.878 27.2976 168.52 27.9395 169.804 29.2232L168.841 30.6536C167.905 29.535 166.585 28.9756 164.88 28.9756C163.981 28.9756 163.266 29.1774 162.734 29.5808C162.202 29.9659 161.936 30.4611 161.936 31.0662C161.936 31.598 162.22 32.0198 162.789 32.3316C163.357 32.625 164.036 32.8634 164.825 33.0468C165.631 33.2118 166.438 33.4136 167.245 33.652C168.052 33.8904 168.74 34.3122 169.308 34.9173C169.877 35.5042 170.161 36.2744 170.161 37.228C170.161 38.4017 169.703 39.3645 168.786 40.1163C167.869 40.8682 166.585 41.2442 164.935 41.2442ZM193.616 40.9141H191.553L188.087 30.241L184.621 40.9141H182.558L178.321 27.6277H180.467L183.713 38.2183L187.207 27.6277H188.967L192.461 38.2183L195.706 27.6277H197.852L193.616 40.9141ZM200.998 25.7297C200.632 25.7297 200.311 25.6013 200.036 25.3446C199.76 25.0695 199.623 24.7394 199.623 24.3543C199.623 23.9692 199.76 23.6391 200.036 23.364C200.311 23.0889 200.632 22.9514 200.998 22.9514C201.383 22.9514 201.714 23.0889 201.989 23.364C202.264 23.6391 202.401 23.9692 202.401 24.3543C202.401 24.7394 202.264 25.0695 201.989 25.3446C201.714 25.6013 201.383 25.7297 200.998 25.7297ZM202.044 40.9141H199.981V27.6277H202.044V40.9141ZM209.24 41.2442C208.268 41.2442 207.534 40.9782 207.039 40.4464C206.544 39.9146 206.297 39.1444 206.297 38.1358V29.4433H204.096V27.6277H206.297V23.9967H208.36V27.6277H211.055V29.4433H208.36V37.6956C208.36 38.2091 208.47 38.6217 208.69 38.9335C208.928 39.2452 209.267 39.4011 209.708 39.4011C210.313 39.4011 210.78 39.2177 211.11 38.851L211.716 40.3914C211.11 40.9599 210.285 41.2442 209.24 41.2442ZM224.753 40.9141H222.69V32.1665C222.69 31.0662 222.433 30.2868 221.92 29.8284C221.406 29.3699 220.663 29.1407 219.691 29.1407C218.94 29.1407 218.197 29.3424 217.463 29.7458C216.748 30.1493 216.18 30.6353 215.758 31.2038V40.9141H213.695V22.5663H215.758V29.5533C216.271 28.9481 216.959 28.4255 217.821 27.9853C218.683 27.5269 219.581 27.2976 220.517 27.2976C223.341 27.2976 224.753 28.7097 224.753 31.5339V40.9141Z" fill="#202124"/>
<path d="M66.4268 79.0615H34.3716V66.4219H66.4268V79.0615Z" fill="#34A853"/>
<path d="M50.3999 20.3613C49.5324 20.3613 48.6113 20.8152 48.0865 21.3377L22.3876 46.6854C21.9164 47.1498 21.5522 47.9889 21.5522 48.6591V65.2409L59.407 27.9398L52.7186 21.3377C52.1885 20.8152 51.2674 20.3613 50.3999 20.3613Z" fill="#EA4335"/>
<path d="M34.3722 79.0636V52.6074L21.5522 65.2418V75.9022C21.5522 77.7812 22.8482 79.0636 24.7599 79.0636H34.3722Z" fill="#FBBC04"/>
<path d="M59.4072 27.9395L50.3999 36.8109L66.4276 52.6064V79.0624H76.0453C77.9518 79.0624 79.2531 77.7853 79.2531 75.9012V48.6588C79.2531 47.9886 78.8889 47.1547 78.4177 46.6903L59.4072 27.9395Z" fill="#4285F4"/>
<path d="M113.89 67.826V63.8621H127.355C127.491 64.5611 127.572 65.3935 127.572 66.2909C127.572 69.2656 126.747 72.943 124.088 75.5626C121.504 78.2167 118.199 79.6334 113.816 79.6334C105.698 79.6334 98.875 73.1225 98.875 65.1224C98.875 57.1222 105.698 50.6113 113.816 50.6113C118.307 50.6113 121.5 52.345 123.906 54.6095L121.07 57.4047C119.346 55.8124 117.013 54.5751 113.816 54.5751C107.892 54.5751 103.257 59.2836 103.257 65.1224C103.257 70.9612 107.892 75.6695 113.816 75.6695C117.66 75.6695 119.849 74.1459 121.252 72.7674C122.395 71.6447 123.147 70.0293 123.437 67.826H113.89Z" fill="#202124"/>
<path d="M148.096 70.2917C148.096 75.6722 143.822 79.6361 138.579 79.6361C133.336 79.6361 129.062 75.6722 129.062 70.2917C129.062 64.8767 133.336 60.9473 138.579 60.9473C143.822 60.9511 148.096 64.8767 148.096 70.2917ZM143.93 70.2917C143.93 66.9273 141.454 64.6285 138.579 64.6285C135.704 64.6285 133.228 66.9273 133.228 70.2917C133.228 73.6178 135.704 75.9548 138.579 75.9548C141.45 75.9548 143.93 73.6216 143.93 70.2917Z" fill="#202124"/>
<path d="M168.859 70.2917C168.859 75.6722 164.585 79.6361 159.342 79.6361C154.099 79.6361 149.826 75.6722 149.826 70.2917C149.826 64.8767 154.099 60.9473 159.342 60.9473C164.585 60.9511 168.859 64.8767 168.859 70.2917ZM164.693 70.2917C164.693 66.9273 162.217 64.6285 159.342 64.6285C156.467 64.6285 153.991 66.9273 153.991 70.2917C153.991 73.6178 156.467 75.9548 159.342 75.9548C162.213 75.9548 164.693 73.6216 164.693 70.2917Z" fill="#202124"/>
<path d="M188.756 61.5164V78.2918C188.756 85.1923 184.626 88.0256 179.744 88.0256C175.148 88.0256 172.381 84.9822 171.339 82.5038L174.966 81.0184C175.613 82.542 177.194 84.3444 179.744 84.3444C182.867 84.3444 184.808 82.4313 184.808 78.8571V77.5128H184.665C183.731 78.647 181.937 79.6361 179.674 79.6361C174.935 79.6361 170.587 75.5653 170.587 70.326C170.587 65.0524 174.931 60.9473 179.674 60.9473C181.937 60.9473 183.731 61.9403 184.665 63.0362H184.808V61.5126L188.756 61.5164ZM185.095 70.3298C185.095 67.0381 182.867 64.6324 180.03 64.6324C177.155 64.6324 174.753 67.0381 174.753 70.3298C174.753 73.5873 177.159 75.9586 180.03 75.9586C182.867 75.9548 185.095 73.5834 185.095 70.3298Z" fill="#202124"/>
<path d="M195.811 51.6953V79.0677H191.645V51.6953H195.811Z" fill="#202124"/>
<path d="M212.503 73.3734L215.735 75.4966C214.693 77.0202 212.179 79.6361 207.835 79.6361C202.449 79.6361 198.427 75.5309 198.427 70.2917C198.427 64.7355 202.483 60.9473 207.369 60.9473C212.29 60.9473 214.698 64.8042 215.488 66.893L215.918 67.9547L203.239 73.1214C204.208 74.9963 205.719 75.951 207.835 75.951C209.955 75.9548 211.426 74.9314 212.503 73.3734ZM202.558 70.0091L211.032 66.5417C210.567 65.3732 209.164 64.5598 207.514 64.5598C205.393 64.5598 202.449 66.4004 202.558 70.0091Z" fill="#202124"/>
<path d="M225.355 54.3691H228.297V65.0615H241.247V54.3691H244.187V79.0685H241.247V67.8224H228.297V79.0685H225.355V54.3691Z" fill="#202124"/>
<path d="M251.643 78.3771C250.245 77.5485 249.152 76.422 248.369 74.9975C247.586 73.5732 247.195 71.9961 247.195 70.2699C247.195 68.5439 247.586 66.9707 248.369 65.5425C249.152 64.118 250.24 62.9915 251.643 62.1629C253.042 61.3343 254.619 60.9219 256.366 60.9219C258.114 60.9219 259.691 61.3343 261.09 62.1629C262.488 62.9915 263.581 64.118 264.364 65.5425C265.147 66.9669 265.538 68.5439 265.538 70.2699C265.538 71.9961 265.147 73.5693 264.364 74.9975C263.581 76.4258 262.493 77.5485 261.09 78.3771C259.686 79.2057 258.114 79.6181 256.366 79.6181C254.619 79.6181 253.042 79.2057 251.643 78.3771ZM259.432 76.1545C260.377 75.6161 261.136 74.8371 261.705 73.8252C262.275 72.8133 262.561 71.6295 262.561 70.2737C262.561 68.9181 262.275 67.7344 261.705 66.7225C261.133 65.7105 260.377 64.9354 259.432 64.393C258.487 63.8545 257.467 63.5834 256.371 63.5834C255.274 63.5834 254.246 63.8545 253.29 64.393C252.332 64.9354 251.569 65.7105 250.996 66.7225C250.423 67.7344 250.14 68.9181 250.14 70.2737C250.14 71.6295 250.426 72.8171 250.996 73.8252C251.569 74.8371 252.332 75.6123 253.29 76.1545C254.246 76.6969 255.274 76.9642 256.371 76.9642C257.464 76.9642 258.487 76.6931 259.432 76.1545Z" fill="#202124"/>
<path d="M267.604 61.4756H270.441V64.0608H270.579C271.092 63.1634 271.863 62.4188 272.89 61.8192C273.916 61.2197 275.001 60.9219 276.145 60.9219C277.45 60.9219 278.589 61.2312 279.558 61.8536C280.527 62.476 281.22 63.3009 281.642 64.3357C282.274 63.3009 283.107 62.4722 284.146 61.8536C285.184 61.2312 286.393 60.9219 287.769 60.9219C289.822 60.9219 291.368 61.5367 292.407 62.7663C293.445 63.9958 293.965 65.6685 293.965 67.784V79.0645H291.023V68.2384C291.023 66.6041 290.686 65.4203 290.008 64.687C289.33 63.95 288.326 63.5834 286.998 63.5834C286.11 63.5834 285.305 63.8355 284.584 64.3433C283.858 64.8512 283.294 65.5272 282.886 66.3788C282.479 67.2303 282.274 68.1506 282.274 69.1396V79.0721H279.298V68.2728C279.298 66.6155 278.961 65.4203 278.283 64.687C277.606 63.95 276.613 63.5834 275.308 63.5834C274.42 63.5834 273.614 63.8431 272.893 64.3586C272.169 64.8741 271.602 65.5654 271.197 66.4284C270.789 67.2914 270.584 68.2155 270.584 69.2045V79.0683H267.609V61.4756H267.604Z" fill="#202124"/>
<path d="M300.539 78.4115C299.186 77.6058 298.128 76.4984 297.373 75.0815C296.614 73.6686 296.233 72.0763 296.233 70.3043C296.233 68.6012 296.59 67.0394 297.299 65.6113C298.012 64.1868 299.019 63.0488 300.326 62.1973C301.632 61.3457 303.15 60.9219 304.875 60.9219C306.626 60.9219 308.141 61.3076 309.423 62.0789C310.706 62.8503 311.694 63.9118 312.38 65.2714C313.07 66.627 313.415 68.1812 313.415 69.9263C313.415 70.2699 313.38 70.5716 313.31 70.8238H299.206C299.276 72.1565 299.602 73.283 300.186 74.2032C300.768 75.1235 301.511 75.8147 302.41 76.2729C303.309 76.7351 304.248 76.9642 305.228 76.9642C307.513 76.9642 309.277 75.9063 310.512 73.7908L313.03 74.9975C312.26 76.4256 311.218 77.5485 309.901 78.3771C308.583 79.2057 306.991 79.6181 305.123 79.6181C303.422 79.622 301.891 79.2172 300.539 78.4115ZM310.268 68.4103C310.222 67.6733 310.012 66.9401 309.637 66.2031C309.264 65.4661 308.676 64.8474 307.871 64.3395C307.064 63.8355 306.057 63.5796 304.844 63.5796C303.444 63.5796 302.259 64.0226 301.29 64.9085C300.321 65.7945 299.686 66.9592 299.384 68.4103H310.268Z" fill="#202124"/>
</g>
<defs>
<clipPath id="clip0_662_9876">
<rect width="334.239" height="104" fill="white" transform="translate(0.76123)"/>
</clipPath>
</defs>
</svg>
